G04 #@! TF.GenerationSoftware,KiCad,Pcbnew,8.0.4*
G04 #@! TF.CreationDate,2025-02-27T13:51:43-05:00*
G04 #@! TF.ProjectId,CustomKeyboard,43757374-6f6d-44b6-9579-626f6172642e,rev?*
G04 #@! TF.SameCoordinates,Original*
G04 #@! TF.FileFunction,Legend,Top*
G04 #@! TF.FilePolarity,Positive*
%FSLAX46Y46*%
G04 Gerber Fmt 4.6, Leading zero omitted, Abs format (unit mm)*
G04 Created by KiCad (PCBNEW 8.0.4) date 2025-02-27 13:51:43*
%MOMM*%
%LPD*%
G01*
G04 APERTURE LIST*
G04 Aperture macros list*
%AMRoundRect*
0 Rectangle with rounded corners*
0 $1 Rounding radius*
0 $2 $3 $4 $5 $6 $7 $8 $9 X,Y pos of 4 corners*
0 Add a 4 corners polygon primitive as box body*
4,1,4,$2,$3,$4,$5,$6,$7,$8,$9,$2,$3,0*
0 Add four circle primitives for the rounded corners*
1,1,$1+$1,$2,$3*
1,1,$1+$1,$4,$5*
1,1,$1+$1,$6,$7*
1,1,$1+$1,$8,$9*
0 Add four rect primitives between the rounded corners*
20,1,$1+$1,$2,$3,$4,$5,0*
20,1,$1+$1,$4,$5,$6,$7,0*
20,1,$1+$1,$6,$7,$8,$9,0*
20,1,$1+$1,$8,$9,$2,$3,0*%
G04 Aperture macros list end*
%ADD10C,0.200000*%
%ADD11C,0.150000*%
%ADD12C,0.120000*%
%ADD13C,0.152400*%
%ADD14C,0.050800*%
%ADD15C,0.100000*%
%ADD16R,3.000000X1.500000*%
%ADD17R,1.500000X3.000000*%
%ADD18RoundRect,0.150000X-0.150000X0.512500X-0.150000X-0.512500X0.150000X-0.512500X0.150000X0.512500X0*%
%ADD19RoundRect,0.150000X0.512500X0.150000X-0.512500X0.150000X-0.512500X-0.150000X0.512500X-0.150000X0*%
%ADD20RoundRect,0.150000X0.256326X0.468458X-0.468458X-0.256326X-0.256326X-0.468458X0.468458X0.256326X0*%
%ADD21RoundRect,0.250000X-0.375000X-0.625000X0.375000X-0.625000X0.375000X0.625000X-0.375000X0.625000X0*%
%ADD22O,1.700000X1.700000*%
%ADD23R,1.700000X1.700000*%
%ADD24RoundRect,0.225000X0.250000X-0.225000X0.250000X0.225000X-0.250000X0.225000X-0.250000X-0.225000X0*%
%ADD25RoundRect,0.200000X-0.275000X0.200000X-0.275000X-0.200000X0.275000X-0.200000X0.275000X0.200000X0*%
%ADD26RoundRect,0.102000X-0.330200X-1.016000X0.330200X-1.016000X0.330200X1.016000X-0.330200X1.016000X0*%
%ADD27C,3.048000*%
%ADD28C,3.987800*%
%ADD29C,0.500000*%
%ADD30O,1.000000X1.800000*%
%ADD31O,1.000000X2.100000*%
%ADD32RoundRect,0.150000X0.150000X0.425000X-0.150000X0.425000X-0.150000X-0.425000X0.150000X-0.425000X0*%
%ADD33RoundRect,0.075000X0.075000X0.500000X-0.075000X0.500000X-0.075000X-0.500000X0.075000X-0.500000X0*%
%ADD34C,0.650000*%
%ADD35RoundRect,0.250000X-0.450000X0.262500X-0.450000X-0.262500X0.450000X-0.262500X0.450000X0.262500X0*%
%ADD36RoundRect,0.225000X-0.250000X0.225000X-0.250000X-0.225000X0.250000X-0.225000X0.250000X0.225000X0*%
%ADD37RoundRect,0.225000X-0.225000X-0.250000X0.225000X-0.250000X0.225000X0.250000X-0.225000X0.250000X0*%
%ADD38RoundRect,0.150000X0.150000X-0.512500X0.150000X0.512500X-0.150000X0.512500X-0.150000X-0.512500X0*%
%ADD39RoundRect,0.243750X0.456250X-0.243750X0.456250X0.243750X-0.456250X0.243750X-0.456250X-0.243750X0*%
%ADD40RoundRect,0.250000X0.262500X0.450000X-0.262500X0.450000X-0.262500X-0.450000X0.262500X-0.450000X0*%
%ADD41C,3.300000*%
%ADD42C,1.750000*%
G04 APERTURE END LIST*
D10*
G36*
X276213280Y-48145066D02*
G01*
X276308565Y-48177306D01*
X276391822Y-48231039D01*
X276463049Y-48306266D01*
X276507373Y-48375389D01*
X276547495Y-48468230D01*
X276575134Y-48574208D01*
X276588889Y-48675502D01*
X276593475Y-48786448D01*
X276591368Y-48858438D01*
X276580309Y-48958868D01*
X276555424Y-49064575D01*
X276517637Y-49157941D01*
X276458653Y-49249532D01*
X276385532Y-49322408D01*
X276300505Y-49374462D01*
X276203572Y-49405695D01*
X276094731Y-49416106D01*
X275988699Y-49405389D01*
X275893353Y-49373241D01*
X275808692Y-49319660D01*
X275734717Y-49244647D01*
X275688068Y-49175856D01*
X275645843Y-49084705D01*
X275616755Y-48981819D01*
X275602278Y-48884292D01*
X275597452Y-48778143D01*
X275600804Y-48690106D01*
X275613672Y-48591829D01*
X275640884Y-48487330D01*
X275681232Y-48393771D01*
X275734717Y-48311151D01*
X275743390Y-48300272D01*
X275819579Y-48225671D01*
X275907857Y-48173174D01*
X276008226Y-48142781D01*
X276105966Y-48134319D01*
X276213280Y-48145066D01*
G37*
G36*
X278125638Y-48169434D02*
G01*
X278223595Y-48184226D01*
X278326200Y-48215505D01*
X278416230Y-48261884D01*
X278493684Y-48323363D01*
X278540687Y-48375391D01*
X278593106Y-48457887D01*
X278629911Y-48551650D01*
X278651102Y-48656680D01*
X278656838Y-48755673D01*
X278652831Y-48843672D01*
X278637444Y-48941400D01*
X278604906Y-49044563D01*
X278556661Y-49136038D01*
X278492707Y-49215826D01*
X278438375Y-49264518D01*
X278352092Y-49318821D01*
X278253888Y-49356948D01*
X278143762Y-49378901D01*
X278039881Y-49384842D01*
X277820062Y-49384842D01*
X277820062Y-48165582D01*
X278036950Y-48165582D01*
X278125638Y-48169434D01*
G37*
G36*
X286617651Y-50013485D02*
G01*
X272352969Y-50013485D01*
X272352969Y-49760000D01*
X272575191Y-49760000D01*
X272975261Y-49760000D01*
X272975261Y-48670676D01*
X272974626Y-48585737D01*
X272972278Y-48480303D01*
X272968201Y-48368044D01*
X272963330Y-48266390D01*
X272957187Y-48159720D01*
X272969399Y-48159720D01*
X272984529Y-48236811D01*
X273006158Y-48339117D01*
X273031437Y-48434738D01*
X273501360Y-49760000D01*
X273863817Y-49760000D01*
X274325436Y-48421060D01*
X274343200Y-48361116D01*
X274366281Y-48263113D01*
X274386985Y-48159720D01*
X274398220Y-48159720D01*
X274397228Y-48174122D01*
X274391168Y-48272744D01*
X274386130Y-48380760D01*
X274383107Y-48483770D01*
X274382100Y-48581772D01*
X274382100Y-49760000D01*
X274820272Y-49760000D01*
X274820272Y-48800614D01*
X275130460Y-48800614D01*
X275134620Y-48908294D01*
X275147099Y-49010785D01*
X275167898Y-49108085D01*
X275205596Y-49222411D01*
X275256293Y-49328628D01*
X275319989Y-49426736D01*
X275396685Y-49516734D01*
X275465813Y-49581076D01*
X275559114Y-49649440D01*
X275660072Y-49704400D01*
X275768686Y-49745955D01*
X275884957Y-49774105D01*
X275983486Y-49786973D01*
X276086915Y-49791263D01*
X276192909Y-49786836D01*
X276293758Y-49773555D01*
X276389463Y-49751420D01*
X276501860Y-49711302D01*
X276606219Y-49657349D01*
X276702540Y-49589562D01*
X276790823Y-49507941D01*
X276823534Y-49471764D01*
X276888833Y-49384842D01*
X277376029Y-49384842D01*
X277376029Y-49760000D01*
X278074075Y-49760000D01*
X278190289Y-49755710D01*
X278300549Y-49742841D01*
X278404856Y-49721394D01*
X278503210Y-49691367D01*
X278595610Y-49652762D01*
X278682056Y-49605577D01*
X278762550Y-49549813D01*
X278837090Y-49485471D01*
X278871812Y-49450370D01*
X278948818Y-49356291D01*
X279011822Y-49253173D01*
X279052145Y-49164169D01*
X279083508Y-49069380D01*
X279105909Y-48968805D01*
X279111299Y-48926154D01*
X279415945Y-48926154D01*
X279419080Y-49030914D01*
X279435539Y-49175380D01*
X279466106Y-49304639D01*
X279510781Y-49418692D01*
X279569564Y-49517537D01*
X279642455Y-49601175D01*
X279729454Y-49669607D01*
X279830560Y-49722831D01*
X279945775Y-49760849D01*
X280075097Y-49783659D01*
X280218527Y-49791263D01*
X280269407Y-49790397D01*
X280412357Y-49777417D01*
X280490679Y-49760000D01*
X281463677Y-49760000D01*
X282637020Y-49760000D01*
X282893963Y-49760000D01*
X284075610Y-49760000D01*
X284075610Y-49406824D01*
X285079448Y-49406824D01*
X285079448Y-49760000D01*
X286376378Y-49760000D01*
X286376378Y-49384842D01*
X285576727Y-49384842D01*
X285576727Y-49376538D01*
X285982170Y-49016524D01*
X286007595Y-48993862D01*
X286101224Y-48903653D01*
X286181938Y-48814145D01*
X286249739Y-48725340D01*
X286304625Y-48637237D01*
X286355071Y-48528096D01*
X286385339Y-48420052D01*
X286395429Y-48313105D01*
X286394765Y-48281702D01*
X286381982Y-48178256D01*
X286352930Y-48084860D01*
X286299808Y-47990430D01*
X286225436Y-47909127D01*
X286157217Y-47858162D01*
X286065865Y-47812031D01*
X285961844Y-47780251D01*
X285862600Y-47764434D01*
X285754047Y-47759162D01*
X285713943Y-47759746D01*
X285596724Y-47768504D01*
X285484141Y-47787773D01*
X285376196Y-47817551D01*
X285272887Y-47857840D01*
X285174214Y-47908639D01*
X285174214Y-48290635D01*
X285261999Y-48226887D01*
X285351329Y-48176329D01*
X285442204Y-48138960D01*
X285550179Y-48112032D01*
X285660258Y-48103056D01*
X285695690Y-48104098D01*
X285801701Y-48124153D01*
X285888568Y-48178330D01*
X285938859Y-48265845D01*
X285952861Y-48369769D01*
X285951167Y-48407035D01*
X285928407Y-48508335D01*
X285883496Y-48598381D01*
X285859350Y-48633533D01*
X285796248Y-48711424D01*
X285722570Y-48790172D01*
X285643649Y-48867048D01*
X285079448Y-49406824D01*
X284075610Y-49406824D01*
X284075610Y-49384842D01*
X283337997Y-49384842D01*
X283337997Y-48947159D01*
X283982309Y-48947159D01*
X283982309Y-48572002D01*
X283337997Y-48572002D01*
X283337997Y-48165582D01*
X284030181Y-48165582D01*
X284030181Y-47790425D01*
X282893963Y-47790425D01*
X282893963Y-49760000D01*
X282637020Y-49760000D01*
X282637020Y-49384842D01*
X281907711Y-49384842D01*
X281907711Y-47790425D01*
X281463677Y-47790425D01*
X281463677Y-49760000D01*
X280490679Y-49760000D01*
X280540769Y-49748861D01*
X280654644Y-49704728D01*
X280753981Y-49645019D01*
X280838782Y-49569734D01*
X280909045Y-49478873D01*
X280964771Y-49372436D01*
X281005960Y-49250422D01*
X281032611Y-49112832D01*
X281042303Y-49012452D01*
X281045533Y-48905150D01*
X281045533Y-47790425D01*
X280601988Y-47790425D01*
X280601988Y-48953021D01*
X280601630Y-48981512D01*
X280593032Y-49086429D01*
X280566163Y-49197226D01*
X280521381Y-49285411D01*
X280443998Y-49361386D01*
X280340821Y-49404800D01*
X280235136Y-49416106D01*
X280189884Y-49414234D01*
X280089527Y-49393175D01*
X279993185Y-49337018D01*
X279923118Y-49247167D01*
X279884800Y-49146553D01*
X279867283Y-49049215D01*
X279861444Y-48936901D01*
X279861444Y-47790425D01*
X279415945Y-47790425D01*
X279415945Y-48926154D01*
X279111299Y-48926154D01*
X279119350Y-48862445D01*
X279123831Y-48750300D01*
X279122805Y-48691245D01*
X279114604Y-48578760D01*
X279098202Y-48473773D01*
X279073598Y-48376286D01*
X279021315Y-48244116D01*
X278950580Y-48128818D01*
X278861392Y-48030394D01*
X278753751Y-47948842D01*
X278627657Y-47884163D01*
X278533343Y-47850417D01*
X278430828Y-47824171D01*
X278320111Y-47805423D01*
X278201194Y-47794175D01*
X278074075Y-47790425D01*
X277376029Y-47790425D01*
X277376029Y-49384842D01*
X276888833Y-49384842D01*
X276896080Y-49375195D01*
X276955435Y-49269873D01*
X276993422Y-49179312D01*
X277022968Y-49083149D01*
X277044072Y-48981384D01*
X277056735Y-48874016D01*
X277060956Y-48761046D01*
X277056887Y-48651068D01*
X277044683Y-48546571D01*
X277024342Y-48447553D01*
X276987474Y-48331487D01*
X276937893Y-48223985D01*
X276875600Y-48125045D01*
X276800593Y-48034668D01*
X276732976Y-47970096D01*
X276641349Y-47901489D01*
X276541827Y-47846334D01*
X276434410Y-47804631D01*
X276319098Y-47776381D01*
X276221165Y-47763467D01*
X276118178Y-47759162D01*
X276009307Y-47763658D01*
X275905931Y-47777144D01*
X275808051Y-47799622D01*
X275693428Y-47840364D01*
X275587393Y-47895154D01*
X275489944Y-47963993D01*
X275401081Y-48046880D01*
X275368311Y-48083541D01*
X275295634Y-48181289D01*
X275236171Y-48287742D01*
X275198115Y-48379173D01*
X275168516Y-48476175D01*
X275147374Y-48578750D01*
X275134689Y-48686896D01*
X275131296Y-48778143D01*
X275130460Y-48800614D01*
X274820272Y-48800614D01*
X274820272Y-47790425D01*
X274186706Y-47790425D01*
X273784193Y-48954975D01*
X273756445Y-49043226D01*
X273729620Y-49141405D01*
X273706036Y-49239274D01*
X273697732Y-49239274D01*
X273681465Y-49151136D01*
X273657731Y-49054406D01*
X273627878Y-48957906D01*
X273225366Y-47790425D01*
X272575191Y-47790425D01*
X272575191Y-49760000D01*
X272352969Y-49760000D01*
X272352969Y-47536940D01*
X286617651Y-47536940D01*
X286617651Y-50013485D01*
G37*
G36*
X331334417Y-98686950D02*
G01*
X331330565Y-98775638D01*
X331315773Y-98873595D01*
X331284494Y-98976200D01*
X331238115Y-99066230D01*
X331176636Y-99143684D01*
X331124608Y-99190687D01*
X331042112Y-99243106D01*
X330948349Y-99279911D01*
X330843319Y-99301102D01*
X330744326Y-99306838D01*
X330656327Y-99302831D01*
X330558599Y-99287444D01*
X330455436Y-99254906D01*
X330363961Y-99206661D01*
X330284173Y-99142707D01*
X330235481Y-99088375D01*
X330181178Y-99002092D01*
X330143051Y-98903888D01*
X330121098Y-98793762D01*
X330115157Y-98689881D01*
X330115157Y-98470062D01*
X331334417Y-98470062D01*
X331334417Y-98686950D01*
G37*
G36*
X330809893Y-96250804D02*
G01*
X330908170Y-96263672D01*
X331012669Y-96290884D01*
X331106228Y-96331232D01*
X331188848Y-96384717D01*
X331199727Y-96393390D01*
X331274328Y-96469579D01*
X331326825Y-96557857D01*
X331357218Y-96658226D01*
X331365680Y-96755966D01*
X331354933Y-96863280D01*
X331322693Y-96958565D01*
X331268960Y-97041822D01*
X331193733Y-97113049D01*
X331124610Y-97157373D01*
X331031769Y-97197495D01*
X330925791Y-97225134D01*
X330824497Y-97238889D01*
X330713551Y-97243475D01*
X330641561Y-97241368D01*
X330541131Y-97230309D01*
X330435424Y-97205424D01*
X330342058Y-97167637D01*
X330250467Y-97108653D01*
X330177591Y-97035532D01*
X330125537Y-96950505D01*
X330094304Y-96853572D01*
X330083893Y-96744731D01*
X330094610Y-96638699D01*
X330126758Y-96543353D01*
X330180339Y-96458692D01*
X330255352Y-96384717D01*
X330324143Y-96338068D01*
X330415294Y-96295843D01*
X330518180Y-96266755D01*
X330615707Y-96252278D01*
X330721856Y-96247452D01*
X330809893Y-96250804D01*
G37*
G36*
X331963059Y-107259346D02*
G01*
X329486514Y-107259346D01*
X329486514Y-106277041D01*
X329708736Y-106277041D01*
X329710153Y-106342454D01*
X329718811Y-106445446D01*
X329739591Y-106559088D01*
X329771705Y-106661876D01*
X329815154Y-106753810D01*
X329869937Y-106834891D01*
X329923279Y-106893152D01*
X330007415Y-106958127D01*
X330102584Y-107003748D01*
X330208785Y-107030015D01*
X330308597Y-107037124D01*
X330331331Y-107036651D01*
X330438244Y-107020088D01*
X330533899Y-106979865D01*
X330618297Y-106915980D01*
X330662054Y-106867643D01*
X330714553Y-106783545D01*
X330751287Y-106685537D01*
X330770704Y-106586741D01*
X330777543Y-106586741D01*
X330783867Y-106610813D01*
X330823842Y-106719714D01*
X330877748Y-106809509D01*
X330945582Y-106880198D01*
X331045371Y-106939807D01*
X331143850Y-106968465D01*
X331256259Y-106978018D01*
X331358902Y-106967485D01*
X331451409Y-106935886D01*
X331533780Y-106883221D01*
X331606015Y-106809490D01*
X331651833Y-106741753D01*
X331693307Y-106650788D01*
X331721878Y-106546967D01*
X331736097Y-106447745D01*
X331740837Y-106339078D01*
X331739173Y-106271148D01*
X331728254Y-106157413D01*
X331707143Y-106050223D01*
X331675841Y-105949578D01*
X331634347Y-105855478D01*
X331271891Y-105855478D01*
X331326601Y-105949694D01*
X331365680Y-106045254D01*
X331389127Y-106142158D01*
X331396943Y-106240404D01*
X331386074Y-106355559D01*
X331347033Y-106452531D01*
X331269173Y-106517467D01*
X331169797Y-106535938D01*
X331087623Y-106522406D01*
X331004504Y-106462261D01*
X330956569Y-106370164D01*
X330933900Y-106261903D01*
X330927997Y-106151011D01*
X330927997Y-105987369D01*
X330584103Y-105987369D01*
X330584103Y-106164689D01*
X330584035Y-106177123D01*
X330577281Y-106281515D01*
X330556816Y-106381645D01*
X330514249Y-106479762D01*
X330495985Y-106506667D01*
X330417512Y-106572584D01*
X330316413Y-106594556D01*
X330301056Y-106594194D01*
X330199504Y-106568362D01*
X330121995Y-106501744D01*
X330088464Y-106443741D01*
X330060827Y-106348372D01*
X330052630Y-106242847D01*
X330055073Y-106177932D01*
X330071101Y-106069289D01*
X330102090Y-105966957D01*
X330148038Y-105870937D01*
X330208946Y-105781228D01*
X329812295Y-105781228D01*
X329777102Y-105856853D01*
X329745245Y-105955198D01*
X329723299Y-106064435D01*
X329712377Y-106166736D01*
X329708736Y-106277041D01*
X329486514Y-106277041D01*
X329486514Y-104725610D01*
X329740000Y-104725610D01*
X330115157Y-104725610D01*
X330115157Y-103987997D01*
X330552840Y-103987997D01*
X330552840Y-104632309D01*
X330927997Y-104632309D01*
X330927997Y-103987997D01*
X331334417Y-103987997D01*
X331334417Y-104680181D01*
X331709574Y-104680181D01*
X331709574Y-103543963D01*
X329740000Y-103543963D01*
X329740000Y-104725610D01*
X329486514Y-104725610D01*
X329486514Y-103287020D01*
X329740000Y-103287020D01*
X330115157Y-103287020D01*
X330115157Y-102557711D01*
X331709574Y-102557711D01*
X331709574Y-102113677D01*
X329740000Y-102113677D01*
X329740000Y-103287020D01*
X329486514Y-103287020D01*
X329486514Y-100868527D01*
X329708736Y-100868527D01*
X329709602Y-100919407D01*
X329722582Y-101062357D01*
X329751138Y-101190769D01*
X329795271Y-101304644D01*
X329854980Y-101403981D01*
X329930265Y-101488782D01*
X330021126Y-101559045D01*
X330127563Y-101614771D01*
X330249577Y-101655960D01*
X330387167Y-101682611D01*
X330487547Y-101692303D01*
X330594849Y-101695533D01*
X331709574Y-101695533D01*
X331709574Y-101251988D01*
X330546978Y-101251988D01*
X330518487Y-101251630D01*
X330413570Y-101243032D01*
X330302773Y-101216163D01*
X330214588Y-101171381D01*
X330138613Y-101093998D01*
X330095199Y-100990821D01*
X330083893Y-100885136D01*
X330085765Y-100839884D01*
X330106824Y-100739527D01*
X330162981Y-100643185D01*
X330252832Y-100573118D01*
X330353446Y-100534800D01*
X330450784Y-100517283D01*
X330563098Y-100511444D01*
X331709574Y-100511444D01*
X331709574Y-100065945D01*
X330573845Y-100065945D01*
X330469085Y-100069080D01*
X330324619Y-100085539D01*
X330195360Y-100116106D01*
X330081307Y-100160781D01*
X329982462Y-100219564D01*
X329898824Y-100292455D01*
X329830392Y-100379454D01*
X329777168Y-100480560D01*
X329739150Y-100595775D01*
X329716340Y-100725097D01*
X329708736Y-100868527D01*
X329486514Y-100868527D01*
X329486514Y-98689881D01*
X329740000Y-98689881D01*
X329740000Y-98724075D01*
X329744289Y-98840289D01*
X329757158Y-98950549D01*
X329778605Y-99054856D01*
X329808632Y-99153210D01*
X329847237Y-99245610D01*
X329894422Y-99332056D01*
X329950186Y-99412550D01*
X330014528Y-99487090D01*
X330049629Y-99521812D01*
X330143708Y-99598818D01*
X330246826Y-99661822D01*
X330335830Y-99702145D01*
X330430619Y-99733508D01*
X330531194Y-99755909D01*
X330637554Y-99769350D01*
X330749699Y-99773831D01*
X330808754Y-99772805D01*
X330921239Y-99764604D01*
X331026226Y-99748202D01*
X331123713Y-99723598D01*
X331255883Y-99671315D01*
X331371181Y-99600580D01*
X331469605Y-99511392D01*
X331551157Y-99403751D01*
X331615836Y-99277657D01*
X331649582Y-99183343D01*
X331675828Y-99080828D01*
X331694576Y-98970111D01*
X331705824Y-98851194D01*
X331709574Y-98724075D01*
X331709574Y-98026029D01*
X329740000Y-98026029D01*
X329740000Y-98689881D01*
X329486514Y-98689881D01*
X329486514Y-96736915D01*
X329708736Y-96736915D01*
X329709062Y-96744731D01*
X329713163Y-96842909D01*
X329726444Y-96943758D01*
X329748579Y-97039463D01*
X329788697Y-97151860D01*
X329842650Y-97256219D01*
X329910437Y-97352540D01*
X329992058Y-97440823D01*
X330028235Y-97473534D01*
X330124804Y-97546080D01*
X330230126Y-97605435D01*
X330320687Y-97643422D01*
X330416850Y-97672968D01*
X330518615Y-97694072D01*
X330625983Y-97706735D01*
X330738953Y-97710956D01*
X330848931Y-97706887D01*
X330953428Y-97694683D01*
X331052446Y-97674342D01*
X331168512Y-97637474D01*
X331276014Y-97587893D01*
X331374954Y-97525600D01*
X331465331Y-97450593D01*
X331529903Y-97382976D01*
X331598510Y-97291349D01*
X331653665Y-97191827D01*
X331695368Y-97084410D01*
X331723618Y-96969098D01*
X331736532Y-96871165D01*
X331740837Y-96768178D01*
X331736341Y-96659307D01*
X331722855Y-96555931D01*
X331700377Y-96458051D01*
X331659635Y-96343428D01*
X331604845Y-96237393D01*
X331536006Y-96139944D01*
X331453119Y-96051081D01*
X331416458Y-96018311D01*
X331318710Y-95945634D01*
X331212257Y-95886171D01*
X331120826Y-95848115D01*
X331023824Y-95818516D01*
X330921250Y-95797374D01*
X330813103Y-95784689D01*
X330699385Y-95780460D01*
X330591705Y-95784620D01*
X330489214Y-95797099D01*
X330391914Y-95817898D01*
X330277588Y-95855596D01*
X330171371Y-95906293D01*
X330073263Y-95969989D01*
X329983265Y-96046685D01*
X329918923Y-96115813D01*
X329850559Y-96209114D01*
X329795599Y-96310072D01*
X329754044Y-96418686D01*
X329725894Y-96534957D01*
X329713026Y-96633486D01*
X329708736Y-96736915D01*
X329486514Y-96736915D01*
X329486514Y-93625261D01*
X329740000Y-93625261D01*
X330829323Y-93625261D01*
X330914262Y-93624626D01*
X331019696Y-93622278D01*
X331131955Y-93618201D01*
X331233609Y-93613330D01*
X331340279Y-93607187D01*
X331340279Y-93619399D01*
X331263188Y-93634529D01*
X331160882Y-93656158D01*
X331065261Y-93681437D01*
X329740000Y-94151360D01*
X329740000Y-94513817D01*
X331078939Y-94975436D01*
X331138883Y-94993200D01*
X331236886Y-95016281D01*
X331340279Y-95036985D01*
X331340279Y-95048220D01*
X331325877Y-95047228D01*
X331227255Y-95041168D01*
X331119239Y-95036130D01*
X331016229Y-95033107D01*
X330918227Y-95032100D01*
X329740000Y-95032100D01*
X329740000Y-95470272D01*
X331709574Y-95470272D01*
X331709574Y-94836706D01*
X330545024Y-94434193D01*
X330456773Y-94406445D01*
X330358594Y-94379620D01*
X330260725Y-94356036D01*
X330260725Y-94347732D01*
X330348863Y-94331465D01*
X330445593Y-94307731D01*
X330542093Y-94277878D01*
X331709574Y-93875366D01*
X331709574Y-93225191D01*
X329740000Y-93225191D01*
X329740000Y-93625261D01*
X329486514Y-93625261D01*
X329486514Y-93002969D01*
X331963059Y-93002969D01*
X331963059Y-107259346D01*
G37*
G36*
X81743602Y-52427858D02*
G01*
X82098899Y-52551090D01*
X82340501Y-52815159D01*
X82458637Y-53161749D01*
X82490614Y-53544648D01*
X82481958Y-53733283D01*
X82412715Y-54069079D01*
X82244417Y-54390950D01*
X82213215Y-54430286D01*
X81938327Y-54644416D01*
X81591311Y-54715793D01*
X81514230Y-54712607D01*
X81172548Y-54601109D01*
X80919399Y-54353336D01*
X80821471Y-54186896D01*
X80703416Y-53840025D01*
X80668073Y-53476260D01*
X80670252Y-53390844D01*
X80738039Y-53030778D01*
X80915980Y-52715444D01*
X80931639Y-52697141D01*
X81227150Y-52483322D01*
X81581053Y-52417956D01*
X81743602Y-52427858D01*
G37*
G36*
X87499026Y-50123271D02*
G01*
X87737048Y-50398961D01*
X87885812Y-50755059D01*
X87972366Y-51122644D01*
X88030068Y-51563747D01*
X88054411Y-51942820D01*
X88062526Y-52363245D01*
X88054246Y-52783671D01*
X88029407Y-53162744D01*
X87970529Y-53603846D01*
X87882212Y-53971432D01*
X87730418Y-54327530D01*
X87487547Y-54603219D01*
X87120481Y-54715793D01*
X86744088Y-54606574D01*
X86495046Y-54339099D01*
X86339395Y-53993611D01*
X86248835Y-53636979D01*
X86188461Y-53209019D01*
X86162991Y-52841242D01*
X86154501Y-52433343D01*
X86155462Y-52284294D01*
X86169888Y-51865536D01*
X86201624Y-51489363D01*
X86270867Y-51054044D01*
X86370884Y-50694433D01*
X86539183Y-50351383D01*
X86804614Y-50095869D01*
X87139288Y-50010698D01*
X87499026Y-50123271D01*
G37*
G36*
X68196928Y-50123545D02*
G01*
X68589028Y-50189497D01*
X68910318Y-50367653D01*
X69096328Y-50655444D01*
X69148115Y-50997195D01*
X69145411Y-51074547D01*
X69050743Y-51425695D01*
X68840369Y-51699882D01*
X68719976Y-51795171D01*
X68385295Y-51940843D01*
X68038520Y-51980273D01*
X67364898Y-51980273D01*
X67364898Y-50120119D01*
X68065875Y-50120119D01*
X68196928Y-50123545D01*
G37*
G36*
X74828692Y-50243022D02*
G01*
X75171540Y-50294794D01*
X75530659Y-50404270D01*
X75845763Y-50566596D01*
X76116852Y-50781773D01*
X76281361Y-50963871D01*
X76464830Y-51252608D01*
X76593648Y-51580779D01*
X76667816Y-51948383D01*
X76687892Y-52294857D01*
X76673867Y-52602854D01*
X76620012Y-52944901D01*
X76506130Y-53305971D01*
X76337270Y-53626136D01*
X76113433Y-53905395D01*
X75923270Y-54075814D01*
X75621280Y-54265874D01*
X75277565Y-54399321D01*
X74892126Y-54476154D01*
X74528541Y-54496951D01*
X73759176Y-54496951D01*
X73759176Y-50229540D01*
X74518283Y-50229540D01*
X74828692Y-50243022D01*
G37*
G36*
X90389292Y-56697199D02*
G01*
X52665034Y-56697199D01*
X52665034Y-50850161D01*
X53442812Y-50850161D01*
X53452496Y-51059524D01*
X53518733Y-51411764D01*
X53647722Y-51732358D01*
X53839462Y-52021305D01*
X54095036Y-52281702D01*
X54376709Y-52493411D01*
X54709673Y-52686527D01*
X55043091Y-52840252D01*
X55312836Y-52952965D01*
X55634647Y-53094997D01*
X55799172Y-53174004D01*
X56108234Y-53354871D01*
X56180242Y-53405782D01*
X56422819Y-53647230D01*
X56443596Y-53677113D01*
X56539078Y-54006267D01*
X56467271Y-54288368D01*
X56248429Y-54512338D01*
X56210549Y-54535633D01*
X55882554Y-54662792D01*
X55723413Y-54692967D01*
X55371353Y-54715793D01*
X55059266Y-54699764D01*
X54718285Y-54645107D01*
X54379727Y-54551661D01*
X54080964Y-54433051D01*
X53768137Y-54265554D01*
X53471877Y-54059268D01*
X53471877Y-55546707D01*
X53693310Y-55644094D01*
X54022213Y-55750804D01*
X54357501Y-55825388D01*
X54716592Y-55878924D01*
X55088612Y-55910238D01*
X55438032Y-55919421D01*
X55777834Y-55909070D01*
X56139276Y-55873770D01*
X56487787Y-55813420D01*
X56699563Y-55761166D01*
X57035199Y-55640752D01*
X57359734Y-55466351D01*
X57495255Y-55370140D01*
X57750942Y-55126217D01*
X57954710Y-54833762D01*
X58079304Y-54542772D01*
X58152180Y-54208145D01*
X58173551Y-53866072D01*
X58173430Y-53840101D01*
X58142349Y-53474978D01*
X58048743Y-53136030D01*
X57907317Y-52856509D01*
X57687997Y-52576958D01*
X57673159Y-52561622D01*
X57410773Y-52330332D01*
X57122086Y-52137565D01*
X57017417Y-52077200D01*
X56702138Y-51913950D01*
X56380076Y-51769980D01*
X56161769Y-51677576D01*
X55836392Y-51528912D01*
X55721094Y-51469714D01*
X55427773Y-51289554D01*
X55407123Y-51274113D01*
X55167899Y-51029679D01*
X55077285Y-50720224D01*
X55159351Y-50429575D01*
X55390160Y-50207314D01*
X55428388Y-50184473D01*
X55754326Y-50061989D01*
X55894708Y-50034941D01*
X56236461Y-50010698D01*
X56296844Y-50011366D01*
X56641660Y-50038054D01*
X56735908Y-50050664D01*
X57072505Y-50118409D01*
X57166845Y-50143736D01*
X57493091Y-50256895D01*
X57556412Y-50283208D01*
X57870935Y-50448382D01*
X57870935Y-49061815D01*
X57804632Y-49038053D01*
X57455538Y-48937274D01*
X57346176Y-48916490D01*
X58539427Y-48916490D01*
X60885136Y-55810001D01*
X62646127Y-55810001D01*
X63965445Y-51980273D01*
X65810781Y-51980273D01*
X65810781Y-55810001D01*
X67364898Y-55810001D01*
X67364898Y-53183901D01*
X67783775Y-53183901D01*
X68048778Y-53243741D01*
X68284717Y-53416421D01*
X68508688Y-53686553D01*
X68550662Y-53747101D01*
X68739497Y-54045590D01*
X69811479Y-55810001D01*
X71596406Y-55810001D01*
X70754197Y-54496951D01*
X72205059Y-54496951D01*
X72205059Y-55810001D01*
X74648220Y-55810001D01*
X75054968Y-55794987D01*
X75440880Y-55749947D01*
X75805954Y-55674881D01*
X76150191Y-55569788D01*
X76473592Y-55434668D01*
X76776155Y-55269522D01*
X77057882Y-55074349D01*
X77318771Y-54849149D01*
X77440300Y-54726298D01*
X77709820Y-54397022D01*
X77930336Y-54036107D01*
X78071467Y-53724594D01*
X78181235Y-53392832D01*
X78259641Y-53040821D01*
X78299463Y-52725702D01*
X79119085Y-52725702D01*
X79121637Y-52912413D01*
X79142046Y-53270008D01*
X79168840Y-53476260D01*
X79196259Y-53687323D01*
X79282362Y-54071663D01*
X79400354Y-54423028D01*
X79550237Y-54741418D01*
X79772191Y-55079959D01*
X79899446Y-55229980D01*
X80180826Y-55485754D01*
X80498028Y-55682503D01*
X80851055Y-55820227D01*
X81239905Y-55898927D01*
X81591311Y-55919421D01*
X81719612Y-55916710D01*
X82087445Y-55876038D01*
X82429672Y-55786559D01*
X82746294Y-55648274D01*
X83037310Y-55461182D01*
X83302721Y-55225283D01*
X83384292Y-55137133D01*
X83597431Y-54856095D01*
X83763205Y-54550172D01*
X83881615Y-54219365D01*
X83952661Y-53863674D01*
X83976343Y-53483099D01*
X83971880Y-53303741D01*
X83926755Y-52911418D01*
X83833034Y-52555747D01*
X83795208Y-52470957D01*
X84610642Y-52470957D01*
X84620259Y-52888544D01*
X84649110Y-53279190D01*
X84697195Y-53642896D01*
X84764515Y-53979660D01*
X84901558Y-54434291D01*
X85081878Y-54828305D01*
X85305474Y-55161702D01*
X85572348Y-55434481D01*
X85882498Y-55646642D01*
X86235925Y-55798186D01*
X86632629Y-55889113D01*
X87072609Y-55919421D01*
X87370177Y-55904889D01*
X87717118Y-55845851D01*
X88096751Y-55715059D01*
X88436354Y-55518871D01*
X88735925Y-55257287D01*
X88954989Y-54989345D01*
X88995381Y-54930418D01*
X89178105Y-54611895D01*
X89328772Y-54253551D01*
X89447383Y-53855386D01*
X89519190Y-53508183D01*
X89570481Y-53135496D01*
X89601256Y-52737322D01*
X89611514Y-52313664D01*
X89602124Y-51889037D01*
X89573954Y-51491806D01*
X89527004Y-51121970D01*
X89461274Y-50779529D01*
X89327467Y-50317234D01*
X89151404Y-49916578D01*
X88933087Y-49577562D01*
X88672515Y-49300184D01*
X88369687Y-49084447D01*
X88024605Y-48930348D01*
X87637268Y-48837889D01*
X87207676Y-48807070D01*
X86826917Y-48829985D01*
X86475376Y-48898732D01*
X86153055Y-49013310D01*
X85804837Y-49211302D01*
X85498694Y-49475290D01*
X85275715Y-49745695D01*
X85234797Y-49805084D01*
X85049694Y-50126971D01*
X84897065Y-50490433D01*
X84776910Y-50895468D01*
X84704167Y-51249429D01*
X84652209Y-51629998D01*
X84621033Y-52037174D01*
X84611543Y-52433343D01*
X84610642Y-52470957D01*
X83795208Y-52470957D01*
X83690716Y-52236728D01*
X83468562Y-51917014D01*
X83436580Y-51880514D01*
X83155361Y-51630230D01*
X82829049Y-51454104D01*
X82457643Y-51352137D01*
X82095673Y-51323748D01*
X81865131Y-51334674D01*
X81495879Y-51406376D01*
X81170151Y-51545000D01*
X80887947Y-51750547D01*
X80649267Y-52023015D01*
X80620202Y-52023015D01*
X80624309Y-51909701D01*
X80666349Y-51535926D01*
X80751421Y-51197658D01*
X80901341Y-50854542D01*
X81107466Y-50557802D01*
X81327236Y-50344624D01*
X81651151Y-50147474D01*
X81978131Y-50044892D01*
X82341870Y-50010698D01*
X82418866Y-50011981D01*
X82792830Y-50056860D01*
X83148427Y-50165854D01*
X83485659Y-50338961D01*
X83485659Y-49025911D01*
X83338598Y-48962866D01*
X82992384Y-48868832D01*
X82621406Y-48820747D01*
X82244417Y-48807070D01*
X82066394Y-48811237D01*
X81641908Y-48858120D01*
X81246807Y-48957096D01*
X80881091Y-49108164D01*
X80544761Y-49311324D01*
X80237817Y-49566577D01*
X79960258Y-49873922D01*
X79763108Y-50151855D01*
X79592245Y-50452228D01*
X79447668Y-50775041D01*
X79329378Y-51120294D01*
X79237375Y-51487986D01*
X79171659Y-51878118D01*
X79132229Y-52290690D01*
X79119085Y-52725702D01*
X78299463Y-52725702D01*
X78306684Y-52668560D01*
X78322365Y-52276051D01*
X78318777Y-52069359D01*
X78290073Y-51675661D01*
X78232664Y-51308209D01*
X78146552Y-50967003D01*
X77963562Y-50504408D01*
X77715988Y-50100867D01*
X77403829Y-49756380D01*
X77027085Y-49470949D01*
X76585757Y-49244572D01*
X76255659Y-49126463D01*
X75896855Y-49034600D01*
X75509348Y-48968984D01*
X75093136Y-48929614D01*
X74648220Y-48916490D01*
X72205059Y-48916490D01*
X72205059Y-54496951D01*
X70754197Y-54496951D01*
X70293614Y-53778877D01*
X70268049Y-53739420D01*
X70069644Y-53455744D01*
X70038682Y-53414631D01*
X69811479Y-53146288D01*
X69794763Y-53128476D01*
X69532798Y-52894962D01*
X69235310Y-52739379D01*
X69235310Y-52720573D01*
X69549618Y-52609100D01*
X69871318Y-52441892D01*
X70106282Y-52272050D01*
X70360293Y-52016176D01*
X70519148Y-51789301D01*
X70671458Y-51463943D01*
X70754806Y-51144229D01*
X70782588Y-50797160D01*
X70760529Y-50461064D01*
X70662489Y-50064360D01*
X70486016Y-49726427D01*
X70231110Y-49447265D01*
X69897772Y-49226874D01*
X69486001Y-49065254D01*
X69125702Y-48982608D01*
X68721285Y-48933020D01*
X68272749Y-48916490D01*
X65810781Y-48916490D01*
X65810781Y-51980273D01*
X63965445Y-51980273D01*
X65020900Y-48916490D01*
X63394975Y-48916490D01*
X61967376Y-53695102D01*
X61877641Y-54041842D01*
X61818632Y-54401208D01*
X61789567Y-54401208D01*
X61738561Y-54059071D01*
X61651081Y-53713908D01*
X60213224Y-48916490D01*
X58539427Y-48916490D01*
X57346176Y-48916490D01*
X57103279Y-48870328D01*
X56859847Y-48839749D01*
X56504978Y-48814545D01*
X56149267Y-48807070D01*
X55812837Y-48818590D01*
X55455491Y-48857875D01*
X55111479Y-48925039D01*
X54902450Y-48982284D01*
X54570381Y-49110111D01*
X54248080Y-49290915D01*
X54113782Y-49389329D01*
X53860331Y-49635553D01*
X53658234Y-49926923D01*
X53554099Y-50156170D01*
X53468267Y-50498858D01*
X53442812Y-50850161D01*
X52665034Y-50850161D01*
X52665034Y-48029292D01*
X90389292Y-48029292D01*
X90389292Y-56697199D01*
G37*
X54464911Y-58411504D02*
X54464911Y-60030552D01*
X54464911Y-60030552D02*
X54369673Y-60221028D01*
X54369673Y-60221028D02*
X54274435Y-60316266D01*
X54274435Y-60316266D02*
X54083958Y-60411504D01*
X54083958Y-60411504D02*
X53798244Y-60411504D01*
X53798244Y-60411504D02*
X53607768Y-60316266D01*
X54464911Y-59649600D02*
X54274435Y-59744838D01*
X54274435Y-59744838D02*
X53893482Y-59744838D01*
X53893482Y-59744838D02*
X53703006Y-59649600D01*
X53703006Y-59649600D02*
X53607768Y-59554361D01*
X53607768Y-59554361D02*
X53512530Y-59363885D01*
X53512530Y-59363885D02*
X53512530Y-58792457D01*
X53512530Y-58792457D02*
X53607768Y-58601980D01*
X53607768Y-58601980D02*
X53703006Y-58506742D01*
X53703006Y-58506742D02*
X53893482Y-58411504D01*
X53893482Y-58411504D02*
X54274435Y-58411504D01*
X54274435Y-58411504D02*
X54464911Y-58506742D01*
X55417292Y-59744838D02*
X55417292Y-58411504D01*
X55417292Y-57744838D02*
X55322054Y-57840076D01*
X55322054Y-57840076D02*
X55417292Y-57935314D01*
X55417292Y-57935314D02*
X55512530Y-57840076D01*
X55512530Y-57840076D02*
X55417292Y-57744838D01*
X55417292Y-57744838D02*
X55417292Y-57935314D01*
X56083959Y-58411504D02*
X56845863Y-58411504D01*
X56369673Y-57744838D02*
X56369673Y-59459123D01*
X56369673Y-59459123D02*
X56464911Y-59649600D01*
X56464911Y-59649600D02*
X56655387Y-59744838D01*
X56655387Y-59744838D02*
X56845863Y-59744838D01*
X57512530Y-59744838D02*
X57512530Y-57744838D01*
X58369673Y-59744838D02*
X58369673Y-58697219D01*
X58369673Y-58697219D02*
X58274435Y-58506742D01*
X58274435Y-58506742D02*
X58083959Y-58411504D01*
X58083959Y-58411504D02*
X57798244Y-58411504D01*
X57798244Y-58411504D02*
X57607768Y-58506742D01*
X57607768Y-58506742D02*
X57512530Y-58601980D01*
X60179197Y-58411504D02*
X60179197Y-59744838D01*
X59322054Y-58411504D02*
X59322054Y-59459123D01*
X59322054Y-59459123D02*
X59417292Y-59649600D01*
X59417292Y-59649600D02*
X59607768Y-59744838D01*
X59607768Y-59744838D02*
X59893483Y-59744838D01*
X59893483Y-59744838D02*
X60083959Y-59649600D01*
X60083959Y-59649600D02*
X60179197Y-59554361D01*
X61131578Y-59744838D02*
X61131578Y-57744838D01*
X61131578Y-58506742D02*
X61322054Y-58411504D01*
X61322054Y-58411504D02*
X61703007Y-58411504D01*
X61703007Y-58411504D02*
X61893483Y-58506742D01*
X61893483Y-58506742D02*
X61988721Y-58601980D01*
X61988721Y-58601980D02*
X62083959Y-58792457D01*
X62083959Y-58792457D02*
X62083959Y-59363885D01*
X62083959Y-59363885D02*
X61988721Y-59554361D01*
X61988721Y-59554361D02*
X61893483Y-59649600D01*
X61893483Y-59649600D02*
X61703007Y-59744838D01*
X61703007Y-59744838D02*
X61322054Y-59744838D01*
X61322054Y-59744838D02*
X61131578Y-59649600D01*
X62941102Y-59554361D02*
X63036340Y-59649600D01*
X63036340Y-59649600D02*
X62941102Y-59744838D01*
X62941102Y-59744838D02*
X62845864Y-59649600D01*
X62845864Y-59649600D02*
X62941102Y-59554361D01*
X62941102Y-59554361D02*
X62941102Y-59744838D01*
X64750626Y-59649600D02*
X64560150Y-59744838D01*
X64560150Y-59744838D02*
X64179197Y-59744838D01*
X64179197Y-59744838D02*
X63988721Y-59649600D01*
X63988721Y-59649600D02*
X63893483Y-59554361D01*
X63893483Y-59554361D02*
X63798245Y-59363885D01*
X63798245Y-59363885D02*
X63798245Y-58792457D01*
X63798245Y-58792457D02*
X63893483Y-58601980D01*
X63893483Y-58601980D02*
X63988721Y-58506742D01*
X63988721Y-58506742D02*
X64179197Y-58411504D01*
X64179197Y-58411504D02*
X64560150Y-58411504D01*
X64560150Y-58411504D02*
X64750626Y-58506742D01*
X65893483Y-59744838D02*
X65703007Y-59649600D01*
X65703007Y-59649600D02*
X65607769Y-59554361D01*
X65607769Y-59554361D02*
X65512531Y-59363885D01*
X65512531Y-59363885D02*
X65512531Y-58792457D01*
X65512531Y-58792457D02*
X65607769Y-58601980D01*
X65607769Y-58601980D02*
X65703007Y-58506742D01*
X65703007Y-58506742D02*
X65893483Y-58411504D01*
X65893483Y-58411504D02*
X66179198Y-58411504D01*
X66179198Y-58411504D02*
X66369674Y-58506742D01*
X66369674Y-58506742D02*
X66464912Y-58601980D01*
X66464912Y-58601980D02*
X66560150Y-58792457D01*
X66560150Y-58792457D02*
X66560150Y-59363885D01*
X66560150Y-59363885D02*
X66464912Y-59554361D01*
X66464912Y-59554361D02*
X66369674Y-59649600D01*
X66369674Y-59649600D02*
X66179198Y-59744838D01*
X66179198Y-59744838D02*
X65893483Y-59744838D01*
X67417293Y-59744838D02*
X67417293Y-58411504D01*
X67417293Y-58601980D02*
X67512531Y-58506742D01*
X67512531Y-58506742D02*
X67703007Y-58411504D01*
X67703007Y-58411504D02*
X67988722Y-58411504D01*
X67988722Y-58411504D02*
X68179198Y-58506742D01*
X68179198Y-58506742D02*
X68274436Y-58697219D01*
X68274436Y-58697219D02*
X68274436Y-59744838D01*
X68274436Y-58697219D02*
X68369674Y-58506742D01*
X68369674Y-58506742D02*
X68560150Y-58411504D01*
X68560150Y-58411504D02*
X68845864Y-58411504D01*
X68845864Y-58411504D02*
X69036341Y-58506742D01*
X69036341Y-58506742D02*
X69131579Y-58697219D01*
X69131579Y-58697219D02*
X69131579Y-59744838D01*
X71512531Y-57649600D02*
X69798246Y-60221028D01*
X73036341Y-59744838D02*
X73036341Y-58697219D01*
X73036341Y-58697219D02*
X72941103Y-58506742D01*
X72941103Y-58506742D02*
X72750627Y-58411504D01*
X72750627Y-58411504D02*
X72369674Y-58411504D01*
X72369674Y-58411504D02*
X72179198Y-58506742D01*
X73036341Y-59649600D02*
X72845865Y-59744838D01*
X72845865Y-59744838D02*
X72369674Y-59744838D01*
X72369674Y-59744838D02*
X72179198Y-59649600D01*
X72179198Y-59649600D02*
X72083960Y-59459123D01*
X72083960Y-59459123D02*
X72083960Y-59268647D01*
X72083960Y-59268647D02*
X72179198Y-59078171D01*
X72179198Y-59078171D02*
X72369674Y-58982933D01*
X72369674Y-58982933D02*
X72845865Y-58982933D01*
X72845865Y-58982933D02*
X73036341Y-58887695D01*
X73988722Y-59744838D02*
X73988722Y-57744838D01*
X75131579Y-59744838D02*
X74274436Y-58601980D01*
X75131579Y-57744838D02*
X73988722Y-58887695D01*
X76750627Y-59649600D02*
X76560151Y-59744838D01*
X76560151Y-59744838D02*
X76179198Y-59744838D01*
X76179198Y-59744838D02*
X75988722Y-59649600D01*
X75988722Y-59649600D02*
X75893484Y-59459123D01*
X75893484Y-59459123D02*
X75893484Y-58697219D01*
X75893484Y-58697219D02*
X75988722Y-58506742D01*
X75988722Y-58506742D02*
X76179198Y-58411504D01*
X76179198Y-58411504D02*
X76560151Y-58411504D01*
X76560151Y-58411504D02*
X76750627Y-58506742D01*
X76750627Y-58506742D02*
X76845865Y-58697219D01*
X76845865Y-58697219D02*
X76845865Y-58887695D01*
X76845865Y-58887695D02*
X75893484Y-59078171D01*
X77703008Y-59744838D02*
X77703008Y-58411504D01*
X77703008Y-58601980D02*
X77798246Y-58506742D01*
X77798246Y-58506742D02*
X77988722Y-58411504D01*
X77988722Y-58411504D02*
X78274437Y-58411504D01*
X78274437Y-58411504D02*
X78464913Y-58506742D01*
X78464913Y-58506742D02*
X78560151Y-58697219D01*
X78560151Y-58697219D02*
X78560151Y-59744838D01*
X78560151Y-58697219D02*
X78655389Y-58506742D01*
X78655389Y-58506742D02*
X78845865Y-58411504D01*
X78845865Y-58411504D02*
X79131579Y-58411504D01*
X79131579Y-58411504D02*
X79322056Y-58506742D01*
X79322056Y-58506742D02*
X79417294Y-58697219D01*
X79417294Y-58697219D02*
X79417294Y-59744838D01*
X80369675Y-58411504D02*
X80369675Y-60411504D01*
X80369675Y-58506742D02*
X80560151Y-58411504D01*
X80560151Y-58411504D02*
X80941104Y-58411504D01*
X80941104Y-58411504D02*
X81131580Y-58506742D01*
X81131580Y-58506742D02*
X81226818Y-58601980D01*
X81226818Y-58601980D02*
X81322056Y-58792457D01*
X81322056Y-58792457D02*
X81322056Y-59363885D01*
X81322056Y-59363885D02*
X81226818Y-59554361D01*
X81226818Y-59554361D02*
X81131580Y-59649600D01*
X81131580Y-59649600D02*
X80941104Y-59744838D01*
X80941104Y-59744838D02*
X80560151Y-59744838D01*
X80560151Y-59744838D02*
X80369675Y-59649600D01*
X82179199Y-59744838D02*
X82179199Y-58411504D01*
X82179199Y-57744838D02*
X82083961Y-57840076D01*
X82083961Y-57840076D02*
X82179199Y-57935314D01*
X82179199Y-57935314D02*
X82274437Y-57840076D01*
X82274437Y-57840076D02*
X82179199Y-57744838D01*
X82179199Y-57744838D02*
X82179199Y-57935314D01*
X83036342Y-59649600D02*
X83226818Y-59744838D01*
X83226818Y-59744838D02*
X83607770Y-59744838D01*
X83607770Y-59744838D02*
X83798247Y-59649600D01*
X83798247Y-59649600D02*
X83893485Y-59459123D01*
X83893485Y-59459123D02*
X83893485Y-59363885D01*
X83893485Y-59363885D02*
X83798247Y-59173409D01*
X83798247Y-59173409D02*
X83607770Y-59078171D01*
X83607770Y-59078171D02*
X83322056Y-59078171D01*
X83322056Y-59078171D02*
X83131580Y-58982933D01*
X83131580Y-58982933D02*
X83036342Y-58792457D01*
X83036342Y-58792457D02*
X83036342Y-58697219D01*
X83036342Y-58697219D02*
X83131580Y-58506742D01*
X83131580Y-58506742D02*
X83322056Y-58411504D01*
X83322056Y-58411504D02*
X83607770Y-58411504D01*
X83607770Y-58411504D02*
X83798247Y-58506742D01*
X84464914Y-58411504D02*
X85226818Y-58411504D01*
X84750628Y-57744838D02*
X84750628Y-59459123D01*
X84750628Y-59459123D02*
X84845866Y-59649600D01*
X84845866Y-59649600D02*
X85036342Y-59744838D01*
X85036342Y-59744838D02*
X85226818Y-59744838D01*
X86750628Y-59744838D02*
X86750628Y-58697219D01*
X86750628Y-58697219D02*
X86655390Y-58506742D01*
X86655390Y-58506742D02*
X86464914Y-58411504D01*
X86464914Y-58411504D02*
X86083961Y-58411504D01*
X86083961Y-58411504D02*
X85893485Y-58506742D01*
X86750628Y-59649600D02*
X86560152Y-59744838D01*
X86560152Y-59744838D02*
X86083961Y-59744838D01*
X86083961Y-59744838D02*
X85893485Y-59649600D01*
X85893485Y-59649600D02*
X85798247Y-59459123D01*
X85798247Y-59459123D02*
X85798247Y-59268647D01*
X85798247Y-59268647D02*
X85893485Y-59078171D01*
X85893485Y-59078171D02*
X86083961Y-58982933D01*
X86083961Y-58982933D02*
X86560152Y-58982933D01*
X86560152Y-58982933D02*
X86750628Y-58887695D01*
G36*
X103263280Y-48145066D02*
G01*
X103358565Y-48177306D01*
X103441822Y-48231039D01*
X103513049Y-48306266D01*
X103557373Y-48375389D01*
X103597495Y-48468230D01*
X103625134Y-48574208D01*
X103638889Y-48675502D01*
X103643475Y-48786448D01*
X103641368Y-48858438D01*
X103630309Y-48958868D01*
X103605424Y-49064575D01*
X103567637Y-49157941D01*
X103508653Y-49249532D01*
X103435532Y-49322408D01*
X103350505Y-49374462D01*
X103253572Y-49405695D01*
X103144731Y-49416106D01*
X103038699Y-49405389D01*
X102943353Y-49373241D01*
X102858692Y-49319660D01*
X102784717Y-49244647D01*
X102738068Y-49175856D01*
X102695843Y-49084705D01*
X102666755Y-48981819D01*
X102652278Y-48884292D01*
X102647452Y-48778143D01*
X102650804Y-48690106D01*
X102663672Y-48591829D01*
X102690884Y-48487330D01*
X102731232Y-48393771D01*
X102784717Y-48311151D01*
X102793390Y-48300272D01*
X102869579Y-48225671D01*
X102957857Y-48173174D01*
X103058226Y-48142781D01*
X103155966Y-48134319D01*
X103263280Y-48145066D01*
G37*
G36*
X105175638Y-48169434D02*
G01*
X105273595Y-48184226D01*
X105376200Y-48215505D01*
X105466230Y-48261884D01*
X105543684Y-48323363D01*
X105590687Y-48375391D01*
X105643106Y-48457887D01*
X105679911Y-48551650D01*
X105701102Y-48656680D01*
X105706838Y-48755673D01*
X105702831Y-48843672D01*
X105687444Y-48941400D01*
X105654906Y-49044563D01*
X105606661Y-49136038D01*
X105542707Y-49215826D01*
X105488375Y-49264518D01*
X105402092Y-49318821D01*
X105303888Y-49356948D01*
X105193762Y-49378901D01*
X105089881Y-49384842D01*
X104870062Y-49384842D01*
X104870062Y-48165582D01*
X105086950Y-48165582D01*
X105175638Y-48169434D01*
G37*
G36*
X113681328Y-50013485D02*
G01*
X99402969Y-50013485D01*
X99402969Y-49760000D01*
X99625191Y-49760000D01*
X100025261Y-49760000D01*
X100025261Y-48670676D01*
X100024626Y-48585737D01*
X100022278Y-48480303D01*
X100018201Y-48368044D01*
X100013330Y-48266390D01*
X100007187Y-48159720D01*
X100019399Y-48159720D01*
X100034529Y-48236811D01*
X100056158Y-48339117D01*
X100081437Y-48434738D01*
X100551360Y-49760000D01*
X100913817Y-49760000D01*
X101375436Y-48421060D01*
X101393200Y-48361116D01*
X101416281Y-48263113D01*
X101436985Y-48159720D01*
X101448220Y-48159720D01*
X101447228Y-48174122D01*
X101441168Y-48272744D01*
X101436130Y-48380760D01*
X101433107Y-48483770D01*
X101432100Y-48581772D01*
X101432100Y-49760000D01*
X101870272Y-49760000D01*
X101870272Y-48800614D01*
X102180460Y-48800614D01*
X102184620Y-48908294D01*
X102197099Y-49010785D01*
X102217898Y-49108085D01*
X102255596Y-49222411D01*
X102306293Y-49328628D01*
X102369989Y-49426736D01*
X102446685Y-49516734D01*
X102515813Y-49581076D01*
X102609114Y-49649440D01*
X102710072Y-49704400D01*
X102818686Y-49745955D01*
X102934957Y-49774105D01*
X103033486Y-49786973D01*
X103136915Y-49791263D01*
X103242909Y-49786836D01*
X103343758Y-49773555D01*
X103439463Y-49751420D01*
X103551860Y-49711302D01*
X103656219Y-49657349D01*
X103752540Y-49589562D01*
X103840823Y-49507941D01*
X103873534Y-49471764D01*
X103938833Y-49384842D01*
X104426029Y-49384842D01*
X104426029Y-49760000D01*
X105124075Y-49760000D01*
X105240289Y-49755710D01*
X105350549Y-49742841D01*
X105454856Y-49721394D01*
X105553210Y-49691367D01*
X105645610Y-49652762D01*
X105732056Y-49605577D01*
X105812550Y-49549813D01*
X105887090Y-49485471D01*
X105921812Y-49450370D01*
X105998818Y-49356291D01*
X106061822Y-49253173D01*
X106102145Y-49164169D01*
X106133508Y-49069380D01*
X106155909Y-48968805D01*
X106161299Y-48926154D01*
X106465945Y-48926154D01*
X106469080Y-49030914D01*
X106485539Y-49175380D01*
X106516106Y-49304639D01*
X106560781Y-49418692D01*
X106619564Y-49517537D01*
X106692455Y-49601175D01*
X106779454Y-49669607D01*
X106880560Y-49722831D01*
X106995775Y-49760849D01*
X107125097Y-49783659D01*
X107268527Y-49791263D01*
X107319407Y-49790397D01*
X107462357Y-49777417D01*
X107540679Y-49760000D01*
X108513677Y-49760000D01*
X109687020Y-49760000D01*
X109943963Y-49760000D01*
X111125610Y-49760000D01*
X111125610Y-49384842D01*
X110387997Y-49384842D01*
X110387997Y-48947159D01*
X111032309Y-48947159D01*
X111032309Y-48572002D01*
X110387997Y-48572002D01*
X110387997Y-48165582D01*
X111080181Y-48165582D01*
X111080181Y-47915478D01*
X112202233Y-47915478D01*
X112202233Y-48259371D01*
X112620865Y-48165582D01*
X112620865Y-49416106D01*
X112212979Y-49416106D01*
X112212979Y-49760000D01*
X113459106Y-49760000D01*
X113459106Y-49416106D01*
X113053663Y-49416106D01*
X113053663Y-47759162D01*
X112202233Y-47915478D01*
X111080181Y-47915478D01*
X111080181Y-47790425D01*
X109943963Y-47790425D01*
X109943963Y-49760000D01*
X109687020Y-49760000D01*
X109687020Y-49384842D01*
X108957711Y-49384842D01*
X108957711Y-47790425D01*
X108513677Y-47790425D01*
X108513677Y-49760000D01*
X107540679Y-49760000D01*
X107590769Y-49748861D01*
X107704644Y-49704728D01*
X107803981Y-49645019D01*
X107888782Y-49569734D01*
X107959045Y-49478873D01*
X108014771Y-49372436D01*
X108055960Y-49250422D01*
X108082611Y-49112832D01*
X108092303Y-49012452D01*
X108095533Y-48905150D01*
X108095533Y-47790425D01*
X107651988Y-47790425D01*
X107651988Y-48953021D01*
X107651630Y-48981512D01*
X107643032Y-49086429D01*
X107616163Y-49197226D01*
X107571381Y-49285411D01*
X107493998Y-49361386D01*
X107390821Y-49404800D01*
X107285136Y-49416106D01*
X107239884Y-49414234D01*
X107139527Y-49393175D01*
X107043185Y-49337018D01*
X106973118Y-49247167D01*
X106934800Y-49146553D01*
X106917283Y-49049215D01*
X106911444Y-48936901D01*
X106911444Y-47790425D01*
X106465945Y-47790425D01*
X106465945Y-48926154D01*
X106161299Y-48926154D01*
X106169350Y-48862445D01*
X106173831Y-48750300D01*
X106172805Y-48691245D01*
X106164604Y-48578760D01*
X106148202Y-48473773D01*
X106123598Y-48376286D01*
X106071315Y-48244116D01*
X106000580Y-48128818D01*
X105911392Y-48030394D01*
X105803751Y-47948842D01*
X105677657Y-47884163D01*
X105583343Y-47850417D01*
X105480828Y-47824171D01*
X105370111Y-47805423D01*
X105251194Y-47794175D01*
X105124075Y-47790425D01*
X104426029Y-47790425D01*
X104426029Y-49384842D01*
X103938833Y-49384842D01*
X103946080Y-49375195D01*
X104005435Y-49269873D01*
X104043422Y-49179312D01*
X104072968Y-49083149D01*
X104094072Y-48981384D01*
X104106735Y-48874016D01*
X104110956Y-48761046D01*
X104106887Y-48651068D01*
X104094683Y-48546571D01*
X104074342Y-48447553D01*
X104037474Y-48331487D01*
X103987893Y-48223985D01*
X103925600Y-48125045D01*
X103850593Y-48034668D01*
X103782976Y-47970096D01*
X103691349Y-47901489D01*
X103591827Y-47846334D01*
X103484410Y-47804631D01*
X103369098Y-47776381D01*
X103271165Y-47763467D01*
X103168178Y-47759162D01*
X103059307Y-47763658D01*
X102955931Y-47777144D01*
X102858051Y-47799622D01*
X102743428Y-47840364D01*
X102637393Y-47895154D01*
X102539944Y-47963993D01*
X102451081Y-48046880D01*
X102418311Y-48083541D01*
X102345634Y-48181289D01*
X102286171Y-48287742D01*
X102248115Y-48379173D01*
X102218516Y-48476175D01*
X102197374Y-48578750D01*
X102184689Y-48686896D01*
X102181296Y-48778143D01*
X102180460Y-48800614D01*
X101870272Y-48800614D01*
X101870272Y-47790425D01*
X101236706Y-47790425D01*
X100834193Y-48954975D01*
X100806445Y-49043226D01*
X100779620Y-49141405D01*
X100756036Y-49239274D01*
X100747732Y-49239274D01*
X100731465Y-49151136D01*
X100707731Y-49054406D01*
X100677878Y-48957906D01*
X100275366Y-47790425D01*
X99625191Y-47790425D01*
X99625191Y-49760000D01*
X99402969Y-49760000D01*
X99402969Y-47536940D01*
X113681328Y-47536940D01*
X113681328Y-50013485D01*
G37*
D11*
X329104819Y-87833333D02*
X329819104Y-87833333D01*
X329819104Y-87833333D02*
X329961961Y-87880952D01*
X329961961Y-87880952D02*
X330057200Y-87976190D01*
X330057200Y-87976190D02*
X330104819Y-88119047D01*
X330104819Y-88119047D02*
X330104819Y-88214285D01*
X329438152Y-86928571D02*
X330104819Y-86928571D01*
X329057200Y-87166666D02*
X329771485Y-87404761D01*
X329771485Y-87404761D02*
X329771485Y-86785714D01*
X329104819Y-112833333D02*
X329819104Y-112833333D01*
X329819104Y-112833333D02*
X329961961Y-112880952D01*
X329961961Y-112880952D02*
X330057200Y-112976190D01*
X330057200Y-112976190D02*
X330104819Y-113119047D01*
X330104819Y-113119047D02*
X330104819Y-113214285D01*
X329104819Y-111880952D02*
X329104819Y-112357142D01*
X329104819Y-112357142D02*
X329581009Y-112404761D01*
X329581009Y-112404761D02*
X329533390Y-112357142D01*
X329533390Y-112357142D02*
X329485771Y-112261904D01*
X329485771Y-112261904D02*
X329485771Y-112023809D01*
X329485771Y-112023809D02*
X329533390Y-111928571D01*
X329533390Y-111928571D02*
X329581009Y-111880952D01*
X329581009Y-111880952D02*
X329676247Y-111833333D01*
X329676247Y-111833333D02*
X329914342Y-111833333D01*
X329914342Y-111833333D02*
X330009580Y-111880952D01*
X330009580Y-111880952D02*
X330057200Y-111928571D01*
X330057200Y-111928571D02*
X330104819Y-112023809D01*
X330104819Y-112023809D02*
X330104819Y-112261904D01*
X330104819Y-112261904D02*
X330057200Y-112357142D01*
X330057200Y-112357142D02*
X330009580Y-112404761D01*
D12*
X95952500Y-53040000D02*
X95622500Y-52800000D01*
X95952500Y-52560000D01*
X95952500Y-53040000D01*
G36*
X95952500Y-53040000D02*
G01*
X95622500Y-52800000D01*
X95952500Y-52560000D01*
X95952500Y-53040000D01*
G37*
X92552499Y-54100000D02*
X92552500Y-54900000D01*
X92552499Y-54100000D02*
X92552500Y-53300000D01*
X95672501Y-54100000D02*
X95672500Y-54900000D01*
X95672501Y-54100000D02*
X95672500Y-53300000D01*
X322350000Y-98272501D02*
X323150000Y-98272500D01*
X322350000Y-98272501D02*
X321550000Y-98272500D01*
X322350000Y-95152499D02*
X323150000Y-95152500D01*
X322350000Y-95152499D02*
X321550000Y-95152500D01*
X323890000Y-98552500D02*
X323410000Y-98552500D01*
X323650000Y-98222500D01*
X323890000Y-98552500D01*
G36*
X323890000Y-98552500D02*
G01*
X323410000Y-98552500D01*
X323650000Y-98222500D01*
X323890000Y-98552500D01*
G37*
X263540021Y-52812132D02*
X263200610Y-53151543D01*
X263136970Y-52748492D01*
X263540021Y-52812132D01*
G36*
X263540021Y-52812132D02*
G01*
X263200610Y-53151543D01*
X263136970Y-52748492D01*
X263540021Y-52812132D01*
G37*
X260046913Y-51496913D02*
X259481228Y-52062599D01*
X260046913Y-51496913D02*
X260612599Y-50931228D01*
X262253087Y-53703087D02*
X261687401Y-54268772D01*
X262253087Y-53703087D02*
X262818772Y-53137401D01*
X202597936Y-49290000D02*
X203802064Y-49290000D01*
X202597936Y-51110000D02*
X203802064Y-51110000D01*
X124149999Y-38930000D02*
X124149999Y-36270000D01*
X116470000Y-38930000D02*
X124149999Y-38930000D01*
X116470000Y-38930000D02*
X116470000Y-36270000D01*
X116470000Y-36270000D02*
X124149999Y-36270000D01*
X115199999Y-38930000D02*
X113869999Y-38930000D01*
X113869999Y-38930000D02*
X113869999Y-37600000D01*
X174640000Y-48290580D02*
X174640000Y-48009420D01*
X175660000Y-48290580D02*
X175660000Y-48009420D01*
X340570000Y-107370000D02*
X341900000Y-107370000D01*
X340570000Y-108700000D02*
X340570000Y-107370000D01*
X340570000Y-109970000D02*
X340570000Y-117650000D01*
X340570000Y-109970000D02*
X343230000Y-109970000D01*
X340570000Y-117650000D02*
X343230000Y-117650000D01*
X343230000Y-109970000D02*
X343230000Y-117650000D01*
X200477500Y-46262742D02*
X200477500Y-46737258D01*
X201522500Y-46262742D02*
X201522500Y-46737258D01*
D13*
X172170000Y-52675200D02*
X172170000Y-53742000D01*
X172170000Y-53742000D02*
X172170000Y-54758000D01*
X172170000Y-54758000D02*
X172170000Y-55824800D01*
D14*
X172170000Y-55850200D02*
X182330000Y-55850200D01*
D13*
X172551000Y-56205800D02*
X181949000Y-56205800D01*
X181949000Y-52294200D02*
X172551000Y-52294200D01*
X182330000Y-55824800D02*
X182330000Y-52675200D01*
X172170000Y-52675200D02*
G75*
G02*
X172551000Y-52294200I380999J1D01*
G01*
X172170000Y-53742000D02*
G75*
G02*
X172170000Y-54758000I1J-508000D01*
G01*
X172551000Y-56205800D02*
G75*
G02*
X172170000Y-55824800I-1J380999D01*
G01*
X181949000Y-52294200D02*
G75*
G02*
X182330000Y-52675200I0J-381000D01*
G01*
X182330000Y-55824800D02*
G75*
G02*
X181949000Y-56205800I-381000J0D01*
G01*
D12*
X261869998Y-38930000D02*
X261869998Y-37600000D01*
X263199998Y-38930000D02*
X261869998Y-38930000D01*
X264469999Y-36270000D02*
X272149998Y-36270000D01*
X264469999Y-38930000D02*
X264469999Y-36270000D01*
X264469999Y-38930000D02*
X272149998Y-38930000D01*
X272149998Y-38930000D02*
X272149998Y-36270000D01*
D15*
X333900000Y-103000000D02*
G75*
G02*
X336900000Y-103000000I1500000J0D01*
G01*
X336900000Y-97000000D02*
G75*
G02*
X333900000Y-97000000I-1500000J0D01*
G01*
X103500000Y-42600000D02*
G75*
G02*
X103500000Y-45600000I0J-1500000D01*
G01*
X109500000Y-45600000D02*
G75*
G02*
X109500000Y-42600000I0J1500000D01*
G01*
D12*
X198670000Y-47800000D02*
X198670000Y-49500000D01*
X189330000Y-47800000D02*
X189330000Y-49500000D01*
X186465000Y-48772936D02*
X186465000Y-49227064D01*
X187935000Y-48772936D02*
X187935000Y-49227064D01*
X328690000Y-118534419D02*
X328690000Y-118815581D01*
X329710000Y-118534419D02*
X329710000Y-118815581D01*
X118559420Y-50990000D02*
X118840580Y-50990000D01*
X118559420Y-52010000D02*
X118840580Y-52010000D01*
X191940000Y-57000000D02*
X191940001Y-56200000D01*
X191940000Y-57000000D02*
X191940001Y-57800000D01*
X195060002Y-57000000D02*
X195060001Y-56200000D01*
X195060002Y-57000000D02*
X195060001Y-57800000D01*
X191990001Y-58300000D02*
X191660001Y-58540000D01*
X191660001Y-58060000D01*
X191990001Y-58300000D01*
G36*
X191990001Y-58300000D02*
G01*
X191660001Y-58540000D01*
X191660001Y-58060000D01*
X191990001Y-58300000D01*
G37*
X202290000Y-45500000D02*
X202290000Y-48184999D01*
X202290000Y-48184999D02*
X204210000Y-48184999D01*
X204210000Y-48184999D02*
X204210000Y-45500000D01*
X205240000Y-46359420D02*
X205240000Y-46640580D01*
X206260000Y-46359420D02*
X206260000Y-46640580D01*
X297149998Y-38930000D02*
X297149998Y-36270000D01*
X289469999Y-38930000D02*
X297149998Y-38930000D01*
X289469999Y-38930000D02*
X289469999Y-36270000D01*
X289469999Y-36270000D02*
X297149998Y-36270000D01*
X288199998Y-38930000D02*
X286869998Y-38930000D01*
X286869998Y-38930000D02*
X286869998Y-37600000D01*
X291484420Y-50740000D02*
X291765580Y-50740000D01*
X291484420Y-51760000D02*
X291765580Y-51760000D01*
X176240000Y-48290580D02*
X176240000Y-48009420D01*
X177260000Y-48290580D02*
X177260000Y-48009420D01*
X327090000Y-118534419D02*
X327090000Y-118815581D01*
X328110000Y-118534419D02*
X328110000Y-118815581D01*
X118559420Y-52590000D02*
X118840580Y-52590000D01*
X118559420Y-53610000D02*
X118840580Y-53610000D01*
X340570000Y-82370000D02*
X341900000Y-82370000D01*
X340570000Y-83700000D02*
X340570000Y-82370000D01*
X340570000Y-84970000D02*
X340570000Y-92650000D01*
X340570000Y-84970000D02*
X343230000Y-84970000D01*
X340570000Y-92650000D02*
X343230000Y-92650000D01*
X343230000Y-84970000D02*
X343230000Y-92650000D01*
X291484420Y-52340000D02*
X291765580Y-52340000D01*
X291484420Y-53360000D02*
X291765580Y-53360000D01*
X88869999Y-38930000D02*
X88869999Y-37600000D01*
X90199999Y-38930000D02*
X88869999Y-38930000D01*
X91470000Y-36270000D02*
X99149999Y-36270000D01*
X91470000Y-38930000D02*
X91470000Y-36270000D01*
X91470000Y-38930000D02*
X99149999Y-38930000D01*
X99149999Y-38930000D02*
X99149999Y-36270000D01*
D15*
X276500000Y-42600000D02*
G75*
G02*
X276500000Y-45600000I0J-1500000D01*
G01*
X282500000Y-45600000D02*
G75*
G02*
X282500000Y-42600000I0J1500000D01*
G01*
D12*
X203227064Y-52765000D02*
X202772936Y-52765000D01*
X203227064Y-54235000D02*
X202772936Y-54235000D01*
%LPC*%
D16*
X338500000Y-108690000D03*
X338500000Y-111229999D03*
X338500000Y-113770001D03*
X338500000Y-116310000D03*
X338500000Y-83690000D03*
X338500000Y-86229999D03*
X338500000Y-88770001D03*
X338500000Y-91310000D03*
D17*
X288189999Y-41000000D03*
X290729998Y-41000000D03*
X293270000Y-41000000D03*
X295809999Y-41000000D03*
X263189999Y-40999999D03*
X265729998Y-40999999D03*
X268270000Y-40999999D03*
X270809999Y-40999999D03*
D18*
X95062499Y-55237500D03*
X94112500Y-55237500D03*
X93162501Y-55237500D03*
X93162501Y-52962500D03*
X94112500Y-52962500D03*
X95062499Y-52962500D03*
D19*
X323487500Y-97662499D03*
X323487500Y-96712500D03*
X323487500Y-95762501D03*
X321212500Y-95762501D03*
X321212500Y-96712500D03*
X321212500Y-97662499D03*
D20*
X261017417Y-54076085D03*
X260345666Y-53404334D03*
X259673915Y-52732583D03*
X261282583Y-51123915D03*
X261954334Y-51795666D03*
X262626085Y-52467417D03*
D21*
X201800000Y-50200000D03*
X204600000Y-50200000D03*
D22*
X122819999Y-37600000D03*
X120279998Y-37600000D03*
X117739999Y-37600000D03*
D23*
X115199999Y-37600000D03*
D24*
X175150000Y-48925000D03*
X175150000Y-47375000D03*
D23*
X341900000Y-108700000D03*
D22*
X341900000Y-111240000D03*
X341900000Y-113780000D03*
X341900000Y-116320000D03*
D25*
X201000000Y-45675000D03*
X201000000Y-47325000D03*
D16*
X332400000Y-91310000D03*
X332400000Y-86230000D03*
X332400000Y-88770000D03*
X332400000Y-83690000D03*
D26*
X172804999Y-57323400D03*
X174075000Y-57323400D03*
X175345001Y-57323400D03*
X176615000Y-57323400D03*
X177885000Y-57323400D03*
X179154999Y-57323400D03*
X180425000Y-57323400D03*
X181695001Y-57323400D03*
X181695001Y-51176600D03*
X180425000Y-51176600D03*
X179154999Y-51176600D03*
X177885000Y-51176600D03*
X176615000Y-51176600D03*
X175345001Y-51176600D03*
X174075000Y-51176600D03*
X172804999Y-51176600D03*
D17*
X295810000Y-47100000D03*
X290730000Y-47100000D03*
X293270000Y-47100000D03*
X288190000Y-47100000D03*
D27*
X303474500Y-99060050D03*
D28*
X303474500Y-114270050D03*
D27*
X327350500Y-99060050D03*
D28*
X327350500Y-114270050D03*
D23*
X263199998Y-37600000D03*
D22*
X265739998Y-37600000D03*
X268279997Y-37600000D03*
X270819998Y-37600000D03*
D29*
X333900000Y-101512000D03*
X336900000Y-101512000D03*
X336900000Y-100762000D03*
X333900000Y-100750000D03*
X333900000Y-100000000D03*
X336900000Y-100000000D03*
X333900000Y-99250000D03*
X336900000Y-99250000D03*
X333900000Y-98476000D03*
X336900000Y-98476000D03*
X108012000Y-45600000D03*
X108012000Y-42600000D03*
X107262000Y-42600000D03*
X107250000Y-45600000D03*
X106500000Y-45600000D03*
X106500000Y-42600000D03*
X105750000Y-45600000D03*
X105750000Y-42600000D03*
X104976000Y-45600000D03*
X104976000Y-42600000D03*
D30*
X189680000Y-46625000D03*
D31*
X189680000Y-50805000D03*
D30*
X198320000Y-46625000D03*
D31*
X198320000Y-50805000D03*
D32*
X197200000Y-51380000D03*
X196400000Y-51380000D03*
D33*
X195750000Y-51380000D03*
X194750000Y-51380000D03*
X193250000Y-51380000D03*
X192250000Y-51380000D03*
D32*
X191600000Y-51380000D03*
X190800000Y-51380000D03*
X190800000Y-51380000D03*
X191600000Y-51380000D03*
D33*
X192750000Y-51379999D03*
X193750000Y-51380000D03*
X194250000Y-51380000D03*
X195250000Y-51379999D03*
D32*
X196400000Y-51380000D03*
X197200000Y-51380000D03*
D34*
X191110000Y-50305000D03*
X196890000Y-50305000D03*
D17*
X122910000Y-47100000D03*
X117830000Y-47100000D03*
X120370000Y-47100000D03*
X115290000Y-47100000D03*
D27*
X305855750Y-61815000D03*
D28*
X305855750Y-77025000D03*
D27*
X329731750Y-61815000D03*
D28*
X329731750Y-77025000D03*
D35*
X187200000Y-48087500D03*
X187200000Y-49912500D03*
D36*
X329200000Y-117900000D03*
X329200000Y-119450000D03*
D37*
X117925000Y-51500000D03*
X119475000Y-51500000D03*
D16*
X332400000Y-116310000D03*
X332400000Y-111230000D03*
X332400000Y-113770000D03*
X332400000Y-108690000D03*
D38*
X192550002Y-58137500D03*
X193500001Y-58137500D03*
X194450000Y-58137500D03*
X194450000Y-55862500D03*
X193500001Y-55862500D03*
X192550002Y-55862500D03*
D39*
X203250000Y-47437501D03*
X203250000Y-45562499D03*
D36*
X205750000Y-45725000D03*
X205750000Y-47275000D03*
D22*
X295819998Y-37600000D03*
X293279997Y-37600000D03*
X290739998Y-37600000D03*
D23*
X288199998Y-37600000D03*
D37*
X290850000Y-51250000D03*
X292400000Y-51250000D03*
D17*
X97910000Y-47100000D03*
X92830000Y-47100000D03*
X95370000Y-47100000D03*
X90290000Y-47100000D03*
D24*
X176750000Y-48925000D03*
X176750000Y-47375000D03*
D27*
X298712000Y-118110050D03*
D28*
X298712000Y-133320050D03*
D27*
X322588000Y-118110050D03*
D28*
X322588000Y-133320050D03*
X232068750Y-136745000D03*
X132056250Y-136745000D03*
D36*
X327600000Y-117900000D03*
X327600000Y-119450000D03*
D37*
X117925000Y-53100000D03*
X119475000Y-53100000D03*
D23*
X341900000Y-83700000D03*
D22*
X341900000Y-86240000D03*
X341900000Y-88780000D03*
X341900000Y-91320000D03*
D27*
X60587000Y-118110050D03*
D28*
X60587000Y-133320050D03*
D27*
X84463000Y-118110050D03*
D28*
X84463000Y-133320050D03*
D37*
X290850000Y-52850000D03*
X292400000Y-52850000D03*
D17*
X270810000Y-47100000D03*
X265730000Y-47100000D03*
X268270000Y-47100000D03*
X263190000Y-47100000D03*
D23*
X90199999Y-37600000D03*
D22*
X92739999Y-37600000D03*
X95279998Y-37600000D03*
X97819999Y-37600000D03*
D29*
X281012000Y-45600000D03*
X281012000Y-42600000D03*
X280262000Y-42600000D03*
X280250000Y-45600000D03*
X279500000Y-45600000D03*
X279500000Y-42600000D03*
X278750000Y-45600000D03*
X278750000Y-42600000D03*
X277976000Y-45600000D03*
X277976000Y-42600000D03*
D40*
X203912500Y-53500000D03*
X202087500Y-53500000D03*
D41*
X125071250Y-120870000D03*
X118721250Y-123410000D03*
D42*
X117451250Y-125950000D03*
D28*
X122531250Y-125950000D03*
D42*
X127611250Y-125950000D03*
D41*
X272708750Y-63720000D03*
X266358750Y-66260000D03*
D42*
X265088750Y-68800000D03*
D28*
X270168750Y-68800000D03*
D42*
X275248750Y-68800000D03*
D41*
X301283750Y-82770000D03*
X294933750Y-85310000D03*
D42*
X293663750Y-87850000D03*
D28*
X298743750Y-87850000D03*
D42*
X303823750Y-87850000D03*
D41*
X184602500Y-139920000D03*
X178252500Y-142460000D03*
D42*
X176982500Y-145000000D03*
D28*
X182062500Y-145000000D03*
D42*
X187142500Y-145000000D03*
D41*
X144121250Y-120870000D03*
X137771250Y-123410000D03*
D42*
X136501250Y-125950000D03*
D28*
X141581250Y-125950000D03*
D42*
X146661250Y-125950000D03*
D41*
X225083750Y-82770000D03*
X218733750Y-85310000D03*
D42*
X217463750Y-87850000D03*
D28*
X222543750Y-87850000D03*
D42*
X227623750Y-87850000D03*
D41*
X191746250Y-101820000D03*
X185396250Y-104360000D03*
D42*
X184126250Y-106900000D03*
D28*
X189206250Y-106900000D03*
D42*
X194286250Y-106900000D03*
D41*
X258421250Y-120870000D03*
X252071250Y-123410000D03*
D42*
X250801250Y-125950000D03*
D28*
X255881250Y-125950000D03*
D42*
X260961250Y-125950000D03*
D41*
X320333750Y-63720000D03*
X313983750Y-66260000D03*
D42*
X312713750Y-68800000D03*
D28*
X317793750Y-68800000D03*
D42*
X322873750Y-68800000D03*
D41*
X167933750Y-82770000D03*
X161583750Y-85310000D03*
D42*
X160313750Y-87850000D03*
D28*
X165393750Y-87850000D03*
D42*
X170473750Y-87850000D03*
D41*
X129833750Y-82770000D03*
X123483750Y-85310000D03*
D42*
X122213750Y-87850000D03*
D28*
X127293750Y-87850000D03*
D42*
X132373750Y-87850000D03*
D41*
X186983750Y-82770000D03*
X180633750Y-85310000D03*
D42*
X179363750Y-87850000D03*
D28*
X184443750Y-87850000D03*
D42*
X189523750Y-87850000D03*
D41*
X286996250Y-101820000D03*
X280646250Y-104360000D03*
D42*
X279376250Y-106900000D03*
D28*
X284456250Y-106900000D03*
D42*
X289536250Y-106900000D03*
D41*
X172696250Y-101820000D03*
X166346250Y-104360000D03*
D42*
X165076250Y-106900000D03*
D28*
X170156250Y-106900000D03*
D42*
X175236250Y-106900000D03*
D41*
X96496250Y-101820000D03*
X90146250Y-104360000D03*
D42*
X88876250Y-106900000D03*
D28*
X93956250Y-106900000D03*
D42*
X99036250Y-106900000D03*
D41*
X120308750Y-63720000D03*
X113958750Y-66260000D03*
D42*
X112688750Y-68800000D03*
D28*
X117768750Y-68800000D03*
D42*
X122848750Y-68800000D03*
D41*
X82208750Y-63720000D03*
X75858750Y-66260000D03*
D42*
X74588750Y-68800000D03*
D28*
X79668750Y-68800000D03*
D42*
X84748750Y-68800000D03*
D41*
X277471250Y-120870000D03*
X271121250Y-123410000D03*
D42*
X269851250Y-125950000D03*
D28*
X274931250Y-125950000D03*
D42*
X280011250Y-125950000D03*
D41*
X206033750Y-82770000D03*
X199683750Y-85310000D03*
D42*
X198413750Y-87850000D03*
D28*
X203493750Y-87850000D03*
D42*
X208573750Y-87850000D03*
D41*
X158408750Y-63720000D03*
X152058750Y-66260000D03*
D42*
X150788750Y-68800000D03*
D28*
X155868750Y-68800000D03*
D42*
X160948750Y-68800000D03*
D41*
X325096250Y-82770000D03*
X318746250Y-85310000D03*
D42*
X317476250Y-87850000D03*
D28*
X322556250Y-87850000D03*
D42*
X327636250Y-87850000D03*
D41*
X65540000Y-139920000D03*
X59190000Y-142460000D03*
D42*
X57920000Y-145000000D03*
D28*
X63000000Y-145000000D03*
D42*
X68080000Y-145000000D03*
D41*
X101258750Y-63720000D03*
X94908750Y-66260000D03*
D42*
X93638750Y-68800000D03*
D28*
X98718750Y-68800000D03*
D42*
X103798750Y-68800000D03*
D41*
X279852500Y-139920000D03*
X273502500Y-142460000D03*
D42*
X272232500Y-145000000D03*
D28*
X277312500Y-145000000D03*
D42*
X282392500Y-145000000D03*
D41*
X303665000Y-139920000D03*
X297315000Y-142460000D03*
D42*
X296045000Y-145000000D03*
D28*
X301125000Y-145000000D03*
D42*
X306205000Y-145000000D03*
D41*
X291758750Y-63720000D03*
X285408750Y-66260000D03*
D42*
X284138750Y-68800000D03*
D28*
X289218750Y-68800000D03*
D42*
X294298750Y-68800000D03*
D41*
X196508750Y-63720000D03*
X190158750Y-66260000D03*
D42*
X188888750Y-68800000D03*
D28*
X193968750Y-68800000D03*
D42*
X199048750Y-68800000D03*
D41*
X75065000Y-120870000D03*
X68715000Y-123410000D03*
D42*
X67445000Y-125950000D03*
D28*
X72525000Y-125950000D03*
D42*
X77605000Y-125950000D03*
D41*
X113165000Y-139920000D03*
X106815000Y-142460000D03*
D42*
X105545000Y-145000000D03*
D28*
X110625000Y-145000000D03*
D42*
X115705000Y-145000000D03*
D41*
X263183750Y-82770000D03*
X256833750Y-85310000D03*
D42*
X255563750Y-87850000D03*
D28*
X260643750Y-87850000D03*
D42*
X265723750Y-87850000D03*
D41*
X89352500Y-139920000D03*
X83002500Y-142460000D03*
D42*
X81732500Y-145000000D03*
D28*
X86812500Y-145000000D03*
D42*
X91892500Y-145000000D03*
D41*
X267946250Y-101820000D03*
X261596250Y-104360000D03*
D42*
X260326250Y-106900000D03*
D28*
X265406250Y-106900000D03*
D42*
X270486250Y-106900000D03*
D41*
X91733750Y-82770000D03*
X85383750Y-85310000D03*
D42*
X84113750Y-87850000D03*
D28*
X89193750Y-87850000D03*
D42*
X94273750Y-87850000D03*
D41*
X248896250Y-101820000D03*
X242546250Y-104360000D03*
D42*
X241276250Y-106900000D03*
D28*
X246356250Y-106900000D03*
D42*
X251436250Y-106900000D03*
D41*
X282233750Y-82770000D03*
X275883750Y-85310000D03*
D42*
X274613750Y-87850000D03*
D28*
X279693750Y-87850000D03*
D42*
X284773750Y-87850000D03*
D41*
X215558750Y-63720000D03*
X209208750Y-66260000D03*
D42*
X207938750Y-68800000D03*
D28*
X213018750Y-68800000D03*
D42*
X218098750Y-68800000D03*
D41*
X317952500Y-101820000D03*
X311602500Y-104360000D03*
D42*
X310332500Y-106900000D03*
D28*
X315412500Y-106900000D03*
D42*
X320492500Y-106900000D03*
D41*
X153646250Y-101820000D03*
X147296250Y-104360000D03*
D42*
X146026250Y-106900000D03*
D28*
X151106250Y-106900000D03*
D42*
X156186250Y-106900000D03*
D41*
X182221250Y-120870000D03*
X175871250Y-123410000D03*
D42*
X174601250Y-125950000D03*
D28*
X179681250Y-125950000D03*
D42*
X184761250Y-125950000D03*
D41*
X220321250Y-120870000D03*
X213971250Y-123410000D03*
D42*
X212701250Y-125950000D03*
D28*
X217781250Y-125950000D03*
D42*
X222861250Y-125950000D03*
D41*
X70302500Y-101820000D03*
X63952500Y-104360000D03*
D42*
X62682500Y-106900000D03*
D28*
X67762500Y-106900000D03*
D42*
X72842500Y-106900000D03*
D41*
X210796250Y-101820000D03*
X204446250Y-104360000D03*
D42*
X203176250Y-106900000D03*
D28*
X208256250Y-106900000D03*
D42*
X213336250Y-106900000D03*
D41*
X115546250Y-101820000D03*
X109196250Y-104360000D03*
D42*
X107926250Y-106900000D03*
D28*
X113006250Y-106900000D03*
D42*
X118086250Y-106900000D03*
D41*
X253658750Y-63720000D03*
X247308750Y-66260000D03*
D42*
X246038750Y-68800000D03*
D28*
X251118750Y-68800000D03*
D42*
X256198750Y-68800000D03*
D41*
X234608750Y-63720000D03*
X228258750Y-66260000D03*
D42*
X226988750Y-68800000D03*
D28*
X232068750Y-68800000D03*
D42*
X237148750Y-68800000D03*
D41*
X67921250Y-82770000D03*
X61571250Y-85310000D03*
D42*
X60301250Y-87850000D03*
D28*
X65381250Y-87850000D03*
D42*
X70461250Y-87850000D03*
D41*
X327477500Y-139920000D03*
X321127500Y-142460000D03*
D42*
X319857500Y-145000000D03*
D28*
X324937500Y-145000000D03*
D42*
X330017500Y-145000000D03*
D41*
X106021250Y-120870000D03*
X99671250Y-123410000D03*
D42*
X98401250Y-125950000D03*
D28*
X103481250Y-125950000D03*
D42*
X108561250Y-125950000D03*
D41*
X110783750Y-82770000D03*
X104433750Y-85310000D03*
D42*
X103163750Y-87850000D03*
D28*
X108243750Y-87850000D03*
D42*
X113323750Y-87850000D03*
D41*
X177458750Y-63720000D03*
X171108750Y-66260000D03*
D42*
X169838750Y-68800000D03*
D28*
X174918750Y-68800000D03*
D42*
X179998750Y-68800000D03*
D41*
X201271250Y-120870000D03*
X194921250Y-123410000D03*
D42*
X193651250Y-125950000D03*
D28*
X198731250Y-125950000D03*
D42*
X203811250Y-125950000D03*
D41*
X134596250Y-101820000D03*
X128246250Y-104360000D03*
D42*
X126976250Y-106900000D03*
D28*
X132056250Y-106900000D03*
D42*
X137136250Y-106900000D03*
D41*
X244133750Y-82770000D03*
X237783750Y-85310000D03*
D42*
X236513750Y-87850000D03*
D28*
X241593750Y-87850000D03*
D42*
X246673750Y-87850000D03*
D41*
X139358750Y-63720000D03*
X133008750Y-66260000D03*
D42*
X131738750Y-68800000D03*
D28*
X136818750Y-68800000D03*
D42*
X141898750Y-68800000D03*
D41*
X163171250Y-120870000D03*
X156821250Y-123410000D03*
D42*
X155551250Y-125950000D03*
D28*
X160631250Y-125950000D03*
D42*
X165711250Y-125950000D03*
D41*
X256040000Y-139920000D03*
X249690000Y-142460000D03*
D42*
X248420000Y-145000000D03*
D28*
X253500000Y-145000000D03*
D42*
X258580000Y-145000000D03*
D41*
X148883750Y-82770000D03*
X142533750Y-85310000D03*
D42*
X141263750Y-87850000D03*
D28*
X146343750Y-87850000D03*
D42*
X151423750Y-87850000D03*
D41*
X63158750Y-63720000D03*
X56808750Y-66260000D03*
D42*
X55538750Y-68800000D03*
D28*
X60618750Y-68800000D03*
D42*
X65698750Y-68800000D03*
D41*
X229846250Y-101820000D03*
X223496250Y-104360000D03*
D42*
X222226250Y-106900000D03*
D28*
X227306250Y-106900000D03*
D42*
X232386250Y-106900000D03*
D41*
X313190000Y-120870000D03*
X306840000Y-123410000D03*
D42*
X305570000Y-125950000D03*
D28*
X310650000Y-125950000D03*
D42*
X315730000Y-125950000D03*
D41*
X239371250Y-120870000D03*
X233021250Y-123410000D03*
D42*
X231751250Y-125950000D03*
D28*
X236831250Y-125950000D03*
D42*
X241911250Y-125950000D03*
D17*
X115189998Y-41000000D03*
X120269999Y-41000000D03*
X117729997Y-41000000D03*
X122809998Y-41000000D03*
X90189998Y-40999999D03*
X95269999Y-40999999D03*
X92729997Y-40999999D03*
X97809998Y-40999999D03*
%LPD*%
M02*
