G04 #@! TF.GenerationSoftware,KiCad,Pcbnew,8.0.4*
G04 #@! TF.CreationDate,2025-02-27T13:51:43-05:00*
G04 #@! TF.ProjectId,CustomKeyboard,43757374-6f6d-44b6-9579-626f6172642e,rev?*
G04 #@! TF.SameCoordinates,Original*
G04 #@! TF.FileFunction,Profile,NP*
%FSLAX46Y46*%
G04 Gerber Fmt 4.6, Leading zero omitted, Abs format (unit mm)*
G04 Created by KiCad (PCBNEW 8.0.4) date 2025-02-27 13:51:43*
%MOMM*%
%LPD*%
G01*
G04 APERTURE LIST*
G04 #@! TA.AperFunction,Profile*
%ADD10C,0.050000*%
G04 #@! TD*
G04 APERTURE END LIST*
D10*
X81999999Y-154999999D02*
X81999999Y-155999999D01*
X333900000Y-81600000D02*
X333900000Y-97000000D01*
X346900000Y-114500000D02*
X346900000Y-118500000D01*
X307000002Y-44999999D02*
G75*
G02*
X304000002Y-44999999I-1500000J0D01*
G01*
X50500000Y-75500000D02*
X50499999Y-108999995D01*
X304000002Y-43999999D02*
X298000000Y-44000001D01*
X346900000Y-85500000D02*
X346900000Y-114500000D01*
X78999999Y-155999999D02*
X53500001Y-155999999D01*
X78999999Y-154999999D02*
G75*
G02*
X81999999Y-154999999I1500000J0D01*
G01*
X338500000Y-81500000D02*
G75*
G02*
X346900000Y-81500000I4200000J0D01*
G01*
X304000002Y-155999999D02*
X95000000Y-155999999D01*
X334500000Y-75499997D02*
G75*
G02*
X334500000Y-72500003I0J1499997D01*
G01*
X87999998Y-42600000D02*
X103499999Y-42600000D01*
X304000002Y-154999999D02*
X304000002Y-155999999D01*
X125200000Y-45599999D02*
X125200000Y-44000001D01*
X335500000Y-118600000D02*
X335500000Y-152999999D01*
X81999998Y-45000000D02*
G75*
G02*
X78999998Y-45000000I-1500000J-3D01*
G01*
X53500001Y-155999999D02*
G75*
G02*
X50500001Y-152999999I-1J2999999D01*
G01*
X298000000Y-45599999D02*
X298000000Y-44000001D01*
X282500000Y-42600000D02*
X297999999Y-42600000D01*
X82000000Y-44000000D02*
X88000000Y-44000000D01*
X109499999Y-45600000D02*
X125200000Y-45599999D01*
X95000000Y-155999999D02*
X81999999Y-155999999D01*
X346899999Y-118500000D02*
G75*
G02*
X338500001Y-118500000I-4199999J0D01*
G01*
X335500000Y-46999999D02*
X335500000Y-72499997D01*
X294000000Y-32600000D02*
X297999999Y-32600000D01*
X78999999Y-154999999D02*
X78999999Y-155999999D01*
X297999999Y-32600001D02*
G75*
G02*
X297999999Y-40999999I1J-4199999D01*
G01*
X109499999Y-42600000D02*
X124999998Y-42600000D01*
X50500000Y-72500000D02*
X50500000Y-47000001D01*
X124999998Y-32600001D02*
G75*
G02*
X124999998Y-40999999I2J-4199999D01*
G01*
X333900000Y-118600000D02*
X335500000Y-118600000D01*
X336900000Y-97000000D02*
G75*
G02*
X333900000Y-97000000I-1500000J0D01*
G01*
X88000000Y-45599998D02*
X103499999Y-45600000D01*
X261000000Y-45600000D02*
X276500000Y-45600000D01*
X50500000Y-47000001D02*
G75*
G02*
X53500000Y-44000000I3000000J1D01*
G01*
X335500000Y-75499997D02*
X335500000Y-81600000D01*
X307000002Y-44999999D02*
X307000002Y-43999999D01*
X50500000Y-127500001D02*
X50500000Y-152999999D01*
X298000000Y-45599999D02*
X282499999Y-45600000D01*
X261000000Y-45599998D02*
X261000000Y-44000000D01*
X260999999Y-42600000D02*
X260999999Y-41000000D01*
X103499999Y-42600000D02*
G75*
G02*
X103499999Y-45600000I1J-1500000D01*
G01*
X335500000Y-75499997D02*
X334500000Y-75499997D01*
X81999998Y-45000000D02*
X81999998Y-44000000D01*
X297999999Y-40999999D02*
X297999999Y-42600000D01*
X87999998Y-41000000D02*
G75*
G02*
X87999998Y-32600000I2J4200000D01*
G01*
X332500000Y-43999999D02*
X307000002Y-43999999D01*
X304000002Y-44999999D02*
X304000002Y-43999999D01*
X333900000Y-103000000D02*
X333900000Y-118600000D01*
X333900000Y-81600000D02*
X335500000Y-81600000D01*
X88000000Y-45599998D02*
X88000000Y-44000000D01*
X338500001Y-118500000D02*
X336900000Y-118500000D01*
X51500000Y-72500000D02*
X50500000Y-72500000D01*
X282500000Y-45600000D02*
G75*
G02*
X282500000Y-42600000I0J1500000D01*
G01*
X50499999Y-108999995D02*
X50500000Y-127500001D01*
X336900000Y-81500000D02*
X336900000Y-97000000D01*
X51500000Y-72500000D02*
G75*
G02*
X51500000Y-75500000I0J-1500000D01*
G01*
X51500000Y-75500000D02*
X50500000Y-75500000D01*
X264999999Y-32600000D02*
X294000000Y-32600000D01*
X336900000Y-81500000D02*
X338500000Y-81500000D01*
X332500000Y-155999999D02*
X307000002Y-155999999D01*
X335500000Y-152999999D02*
G75*
G02*
X332500000Y-156000000I-3000000J-1D01*
G01*
X109499999Y-45600000D02*
G75*
G02*
X109499999Y-42600000I1J1500000D01*
G01*
X334500000Y-72499997D02*
X335500000Y-72499997D01*
X261000000Y-44000000D02*
X125200000Y-44000001D01*
X87999998Y-42600000D02*
X87999998Y-41000000D01*
X346900000Y-85500000D02*
X346900000Y-81500000D01*
X307000002Y-154999999D02*
X307000002Y-155999999D01*
X333900000Y-103000000D02*
G75*
G02*
X336900000Y-103000000I1500000J0D01*
G01*
X264999999Y-32600000D02*
X260999999Y-32600000D01*
X78999998Y-44000000D02*
X53500000Y-44000000D01*
X304000002Y-154999999D02*
G75*
G02*
X307000002Y-154999999I1500000J0D01*
G01*
X91999998Y-32600000D02*
X120999999Y-32600000D01*
X260999999Y-42600000D02*
X276500000Y-42600000D01*
X260999999Y-41000000D02*
G75*
G02*
X260999999Y-32600000I1J4200000D01*
G01*
X91999998Y-32600000D02*
X87999998Y-32600000D01*
X124999998Y-40999999D02*
X124999998Y-42600000D01*
X332500000Y-43999999D02*
G75*
G02*
X335500001Y-46999999I0J-3000001D01*
G01*
X276500000Y-42600000D02*
G75*
G02*
X276500000Y-45600000I0J-1500000D01*
G01*
X78999998Y-45000000D02*
X78999998Y-44000000D01*
X336900000Y-103000000D02*
X336900000Y-118500000D01*
X120999999Y-32600000D02*
X124999998Y-32600000D01*
M02*
