M48
; DRILL file {KiCad 8.0.4} date 2025-02-27T13:51:51-0500
; FORMAT={-:-/ absolute / metric / decimal}
; #@! TF.CreationDate,2025-02-27T13:51:51-05:00
; #@! TF.GenerationSoftware,Kicad,Pcbnew,8.0.4
; #@! TF.FileFunction,NonPlated,1,2,NPTH
FMAT,2
METRIC
; #@! TA.AperFunction,NonPlated,NPTH,ComponentDrill
T1C0.500
; #@! TA.AperFunction,NonPlated,NPTH,ComponentDrill
T2C0.650
; #@! TA.AperFunction,NonPlated,NPTH,ComponentDrill
T3C1.750
; #@! TA.AperFunction,NonPlated,NPTH,ComponentDrill
T4C3.048
; #@! TA.AperFunction,NonPlated,NPTH,ComponentDrill
T5C3.988
%
G90
G05
T1
X104.976Y-42.6
X104.976Y-45.6
X105.75Y-42.6
X105.75Y-45.6
X106.5Y-42.6
X106.5Y-45.6
X107.25Y-45.6
X107.262Y-42.6
X108.012Y-42.6
X108.012Y-45.6
X277.976Y-42.6
X277.976Y-45.6
X278.75Y-42.6
X278.75Y-45.6
X279.5Y-42.6
X279.5Y-45.6
X280.25Y-45.6
X280.262Y-42.6
X281.012Y-42.6
X281.012Y-45.6
X333.9Y-98.476
X333.9Y-99.25
X333.9Y-100.0
X333.9Y-100.75
X333.9Y-101.512
X336.9Y-98.476
X336.9Y-99.25
X336.9Y-100.0
X336.9Y-100.762
X336.9Y-101.512
T2
X191.11Y-50.305
X196.89Y-50.305
T3
X55.539Y-68.8
X57.92Y-145.0
X60.301Y-87.85
X62.682Y-106.9
X65.699Y-68.8
X67.445Y-125.95
X68.08Y-145.0
X70.461Y-87.85
X72.843Y-106.9
X74.589Y-68.8
X77.605Y-125.95
X81.733Y-145.0
X84.114Y-87.85
X84.749Y-68.8
X88.876Y-106.9
X91.892Y-145.0
X93.639Y-68.8
X94.274Y-87.85
X98.401Y-125.95
X99.036Y-106.9
X103.164Y-87.85
X103.799Y-68.8
X105.545Y-145.0
X107.926Y-106.9
X108.561Y-125.95
X112.689Y-68.8
X113.324Y-87.85
X115.705Y-145.0
X117.451Y-125.95
X118.086Y-106.9
X122.214Y-87.85
X122.849Y-68.8
X126.976Y-106.9
X127.611Y-125.95
X131.739Y-68.8
X132.374Y-87.85
X136.501Y-125.95
X137.136Y-106.9
X141.264Y-87.85
X141.899Y-68.8
X146.026Y-106.9
X146.661Y-125.95
X150.789Y-68.8
X151.424Y-87.85
X155.551Y-125.95
X156.186Y-106.9
X160.314Y-87.85
X160.949Y-68.8
X165.076Y-106.9
X165.711Y-125.95
X169.839Y-68.8
X170.474Y-87.85
X174.601Y-125.95
X175.236Y-106.9
X176.982Y-145.0
X179.364Y-87.85
X179.999Y-68.8
X184.126Y-106.9
X184.761Y-125.95
X187.142Y-145.0
X188.889Y-68.8
X189.524Y-87.85
X193.651Y-125.95
X194.286Y-106.9
X198.414Y-87.85
X199.049Y-68.8
X203.176Y-106.9
X203.811Y-125.95
X207.939Y-68.8
X208.574Y-87.85
X212.701Y-125.95
X213.336Y-106.9
X217.464Y-87.85
X218.099Y-68.8
X222.226Y-106.9
X222.861Y-125.95
X226.989Y-68.8
X227.624Y-87.85
X231.751Y-125.95
X232.386Y-106.9
X236.514Y-87.85
X237.149Y-68.8
X241.276Y-106.9
X241.911Y-125.95
X246.039Y-68.8
X246.674Y-87.85
X248.42Y-145.0
X250.801Y-125.95
X251.436Y-106.9
X255.564Y-87.85
X256.199Y-68.8
X258.58Y-145.0
X260.326Y-106.9
X260.961Y-125.95
X265.089Y-68.8
X265.724Y-87.85
X269.851Y-125.95
X270.486Y-106.9
X272.233Y-145.0
X274.614Y-87.85
X275.249Y-68.8
X279.376Y-106.9
X280.011Y-125.95
X282.392Y-145.0
X284.139Y-68.8
X284.774Y-87.85
X289.536Y-106.9
X293.664Y-87.85
X294.299Y-68.8
X296.045Y-145.0
X303.824Y-87.85
X305.57Y-125.95
X306.205Y-145.0
X310.332Y-106.9
X312.714Y-68.8
X315.73Y-125.95
X317.476Y-87.85
X319.857Y-145.0
X320.493Y-106.9
X322.874Y-68.8
X327.636Y-87.85
X330.017Y-145.0
T4
X60.587Y-118.11
X84.463Y-118.11
X298.712Y-118.11
X303.474Y-99.06
X305.856Y-61.815
X322.588Y-118.11
X327.351Y-99.06
X329.732Y-61.815
T5
X60.587Y-133.32
X60.619Y-68.8
X63.0Y-145.0
X65.381Y-87.85
X67.763Y-106.9
X72.525Y-125.95
X79.669Y-68.8
X84.463Y-133.32
X86.812Y-145.0
X89.194Y-87.85
X93.956Y-106.9
X98.719Y-68.8
X103.481Y-125.95
X108.244Y-87.85
X110.625Y-145.0
X113.006Y-106.9
X117.769Y-68.8
X122.531Y-125.95
X127.294Y-87.85
X132.056Y-106.9
X132.056Y-136.745
X136.819Y-68.8
X141.581Y-125.95
X146.344Y-87.85
X151.106Y-106.9
X155.869Y-68.8
X160.631Y-125.95
X165.394Y-87.85
X170.156Y-106.9
X174.919Y-68.8
X179.681Y-125.95
X182.062Y-145.0
X184.444Y-87.85
X189.206Y-106.9
X193.969Y-68.8
X198.731Y-125.95
X203.494Y-87.85
X208.256Y-106.9
X213.019Y-68.8
X217.781Y-125.95
X222.544Y-87.85
X227.306Y-106.9
X232.069Y-68.8
X232.069Y-136.745
X236.831Y-125.95
X241.594Y-87.85
X246.356Y-106.9
X251.119Y-68.8
X253.5Y-145.0
X255.881Y-125.95
X260.644Y-87.85
X265.406Y-106.9
X270.169Y-68.8
X274.931Y-125.95
X277.312Y-145.0
X279.694Y-87.85
X284.456Y-106.9
X289.219Y-68.8
X298.712Y-133.32
X298.744Y-87.85
X301.125Y-145.0
X303.474Y-114.27
X305.856Y-77.025
X310.65Y-125.95
X315.412Y-106.9
X317.794Y-68.8
X322.556Y-87.85
X322.588Y-133.32
X324.938Y-145.0
X327.351Y-114.27
X329.732Y-77.025
M30
