M48
; DRILL file {KiCad 8.0.4} date 2025-02-27T13:51:51-0500
; FORMAT={-:-/ absolute / metric / decimal}
; #@! TF.CreationDate,2025-02-27T13:51:51-05:00
; #@! TF.GenerationSoftware,Kicad,Pcbnew,8.0.4
; #@! TF.FileFunction,Plated,1,2,PTH
FMAT,2
METRIC
; #@! TA.AperFunction,Plated,PTH,ViaDrill
T1C0.300
; #@! TA.AperFunction,Plated,PTH,ViaDrill
T2C0.400
; #@! TA.AperFunction,Plated,PTH,ViaDrill
T3C0.500
; #@! TA.AperFunction,Plated,PTH,ComponentDrill
T4C0.600
; #@! TA.AperFunction,Plated,PTH,ComponentDrill
T5C1.000
; #@! TA.AperFunction,Plated,PTH,ComponentDrill
T6C3.000
; #@! TA.AperFunction,Plated,PTH,ComponentDrill
T7C3.048
%
G90
G05
T1
X193.5Y-59.4
X196.3Y-141.3
X197.0Y-140.8
X197.7Y-140.3
X198.4Y-139.8
X199.6Y-137.9
X199.6Y-138.9
X201.3Y-137.0
X204.0Y-147.4
X204.15Y-139.4
X205.1Y-149.05
X206.1Y-149.05
X206.3Y-144.5
X206.55Y-139.0
X207.1Y-149.05
X207.2Y-118.85
X209.25Y-138.7
X209.8Y-149.05
X209.9Y-143.9
X210.8Y-147.4
X210.85Y-137.47
X211.85Y-137.47
X212.1Y-119.75
X212.7Y-135.75
X212.7Y-145.5
X213.25Y-118.65
X214.4Y-144.4
X219.4Y-140.9
X219.4Y-141.7
X219.4Y-142.5
X219.4Y-143.3
T2
X88.9Y-47.1
X94.1Y-51.6
X94.15Y-56.5
X94.5Y-133.9
X99.3Y-47.1
X101.0Y-133.8
X113.1Y-54.65
X113.9Y-47.1
X116.1Y-133.2
X118.9Y-56.3
X124.3Y-47.1
X139.9Y-137.5
X151.1Y-136.5
X162.2Y-133.7
X169.0Y-53.7
X175.9Y-133.7
X176.4Y-92.0
X176.5Y-93.5
X178.0Y-54.0
X178.2Y-72.7
X180.9Y-112.6
X183.2Y-52.5
X183.6Y-61.0
X183.6Y-99.0
X184.1Y-74.4
X184.55Y-61.0
X186.3Y-62.6
X187.8Y-91.3
X188.5Y-52.75
X188.5Y-55.8
X189.3Y-131.6
X190.5Y-76.5
X190.5Y-77.5
X191.6Y-52.6
X193.3Y-74.5
X193.5Y-54.45
X193.6Y-93.5
X194.45Y-79.0
X196.4Y-133.2
X197.699Y-53.699
X199.25Y-52.75
X199.9Y-117.9
X201.6Y-55.25
X202.1Y-112.8
X202.5Y-95.994
X202.5Y-96.944
X203.4Y-93.5
X203.5Y-51.75
X205.4Y-111.1
X205.7Y-131.6
X208.5Y-46.25
X209.0Y-74.5
X210.063Y-120.95
X211.837Y-128.3
X213.9Y-112.6
X217.25Y-76.5
X220.25Y-66.25
X222.3Y-131.6
X224.0Y-63.5
X227.3Y-110.8
X229.0Y-134.0
X246.7Y-56.7
X254.85Y-54.8
X258.05Y-55.0
X258.75Y-55.7
X259.4Y-54.35
X261.8Y-47.1
X262.25Y-59.25
X262.9Y-50.85
X263.5Y-54.95
X272.2Y-47.1
X286.8Y-47.1
X297.2Y-47.1
X309.3Y-92.1
X314.25Y-96.0
X314.25Y-97.0
X317.35Y-99.0
X319.8Y-96.7
X322.85Y-99.4
X323.3Y-114.8
X324.688Y-96.712
X332.4Y-82.3
X332.4Y-92.7
X332.4Y-107.3
X332.4Y-117.7
T3
X209.0Y-48.5
T5
X90.2Y-37.6
X92.74Y-37.6
X95.28Y-37.6
X97.82Y-37.6
X115.2Y-37.6
X117.74Y-37.6
X120.28Y-37.6
X122.82Y-37.6
X263.2Y-37.6
X265.74Y-37.6
X268.28Y-37.6
X270.82Y-37.6
X288.2Y-37.6
X290.74Y-37.6
X293.28Y-37.6
X295.82Y-37.6
X341.9Y-83.7
X341.9Y-86.24
X341.9Y-88.78
X341.9Y-91.32
X341.9Y-108.7
X341.9Y-111.24
X341.9Y-113.78
X341.9Y-116.32
T6
X56.809Y-66.26
X59.19Y-142.46
X61.571Y-85.31
X63.159Y-63.72
X63.953Y-104.36
X65.54Y-139.92
X67.921Y-82.77
X68.715Y-123.41
X70.302Y-101.82
X75.065Y-120.87
X75.859Y-66.26
X82.209Y-63.72
X83.002Y-142.46
X85.384Y-85.31
X89.352Y-139.92
X90.146Y-104.36
X91.734Y-82.77
X94.909Y-66.26
X96.496Y-101.82
X99.671Y-123.41
X101.259Y-63.72
X104.434Y-85.31
X106.021Y-120.87
X106.815Y-142.46
X109.196Y-104.36
X110.784Y-82.77
X113.165Y-139.92
X113.959Y-66.26
X115.546Y-101.82
X118.721Y-123.41
X120.309Y-63.72
X123.484Y-85.31
X125.071Y-120.87
X128.246Y-104.36
X129.834Y-82.77
X133.009Y-66.26
X134.596Y-101.82
X137.771Y-123.41
X139.359Y-63.72
X142.534Y-85.31
X144.121Y-120.87
X147.296Y-104.36
X148.884Y-82.77
X152.059Y-66.26
X153.646Y-101.82
X156.821Y-123.41
X158.409Y-63.72
X161.584Y-85.31
X163.171Y-120.87
X166.346Y-104.36
X167.934Y-82.77
X171.109Y-66.26
X172.696Y-101.82
X175.871Y-123.41
X177.459Y-63.72
X178.252Y-142.46
X180.634Y-85.31
X182.221Y-120.87
X184.602Y-139.92
X185.396Y-104.36
X186.984Y-82.77
X190.159Y-66.26
X191.746Y-101.82
X194.921Y-123.41
X196.509Y-63.72
X199.684Y-85.31
X201.271Y-120.87
X204.446Y-104.36
X206.034Y-82.77
X209.209Y-66.26
X210.796Y-101.82
X213.971Y-123.41
X215.559Y-63.72
X218.734Y-85.31
X220.321Y-120.87
X223.496Y-104.36
X225.084Y-82.77
X228.259Y-66.26
X229.846Y-101.82
X233.021Y-123.41
X234.609Y-63.72
X237.784Y-85.31
X239.371Y-120.87
X242.546Y-104.36
X244.134Y-82.77
X247.309Y-66.26
X248.896Y-101.82
X249.69Y-142.46
X252.071Y-123.41
X253.659Y-63.72
X256.04Y-139.92
X256.834Y-85.31
X258.421Y-120.87
X261.596Y-104.36
X263.184Y-82.77
X266.359Y-66.26
X267.946Y-101.82
X271.121Y-123.41
X272.709Y-63.72
X273.502Y-142.46
X275.884Y-85.31
X277.471Y-120.87
X279.852Y-139.92
X280.646Y-104.36
X282.234Y-82.77
X285.409Y-66.26
X286.996Y-101.82
X291.759Y-63.72
X294.934Y-85.31
X297.315Y-142.46
X301.284Y-82.77
X303.665Y-139.92
X306.84Y-123.41
X311.602Y-104.36
X313.19Y-120.87
X313.984Y-66.26
X317.952Y-101.82
X318.746Y-85.31
X320.334Y-63.72
X321.127Y-142.46
X325.096Y-82.77
X327.477Y-139.92
T7
X132.056Y-151.985
X232.069Y-151.985
T4
X189.68Y-47.025G85X189.68Y-46.225
G05
X189.68Y-51.355G85X189.68Y-50.255
G05
X198.32Y-47.025G85X198.32Y-46.225
G05
X198.32Y-51.355G85X198.32Y-50.255
G05
M30
